<?xml version="1.0" encoding="utf-8" standalone="no"?>
<!DOCTYPE svg PUBLIC "-//W3C//DTD SVG 1.1//EN"
  "http://www.w3.org/Graphics/SVG/1.1/DTD/svg11.dtd">
<svg xmlns:xlink="http://www.w3.org/1999/xlink" width="432pt" height="288pt" viewBox="0 0 432 288" xmlns="http://www.w3.org/2000/svg" version="1.1">
 <metadata>
  <rdf:RDF xmlns:dc="http://purl.org/dc/elements/1.1/" xmlns:cc="http://creativecommons.org/ns#" xmlns:rdf="http://www.w3.org/1999/02/22-rdf-syntax-ns#">
   <cc:Work>
    <dc:type rdf:resource="http://purl.org/dc/dcmitype/StillImage"/>
    <dc:date>2022-07-03T15:41:00.921653</dc:date>
    <dc:format>image/svg+xml</dc:format>
    <dc:creator>
     <cc:Agent>
      <dc:title>Matplotlib v3.5.2, https://matplotlib.org/</dc:title>
     </cc:Agent>
    </dc:creator>
   </cc:Work>
  </rdf:RDF>
 </metadata>
 <defs>
  <style type="text/css">*{stroke-linejoin: round; stroke-linecap: butt}</style>
 </defs>
 <g id="figure_1">
  <g id="patch_1">
   <path d="M 0 288 
L 432 288 
L 432 0 
L 0 0 
L 0 288 
z
" style="fill: none"/>
  </g>
  <g id="axes_1">
   <g id="patch_2">
    <path d="M 54 252 
L 388.8 252 
L 388.8 34.56 
L 54 34.56 
z
" style="fill: #ffffff"/>
   </g>
   <g id="matplotlib.axis_1">
    <g id="xtick_1">
     <g id="line2d_1">
      <defs>
       <path id="m5730a8e152" d="M 0 0 
L 0 3.5 
" style="stroke: #000000; stroke-width: 0.8"/>
      </defs>
      <g>
       <use xlink:href="#m5730a8e152" x="66.143802" y="252" style="stroke: #000000; stroke-width: 0.8"/>
      </g>
     </g>
     <g id="text_1">
      <!-- 0 -->
      <g transform="translate(62.962552 266.598437)scale(0.1 -0.1)">
       <defs>
        <path id="DejaVuSans-30" d="M 2034 4250 
Q 1547 4250 1301 3770 
Q 1056 3291 1056 2328 
Q 1056 1369 1301 889 
Q 1547 409 2034 409 
Q 2525 409 2770 889 
Q 3016 1369 3016 2328 
Q 3016 3291 2770 3770 
Q 2525 4250 2034 4250 
z
M 2034 4750 
Q 2819 4750 3233 4129 
Q 3647 3509 3647 2328 
Q 3647 1150 3233 529 
Q 2819 -91 2034 -91 
Q 1250 -91 836 529 
Q 422 1150 422 2328 
Q 422 3509 836 4129 
Q 1250 4750 2034 4750 
z
" transform="scale(0.015625)"/>
       </defs>
       <use xlink:href="#DejaVuSans-30"/>
      </g>
     </g>
    </g>
    <g id="xtick_2">
     <g id="line2d_2">
      <g>
       <use xlink:href="#m5730a8e152" x="127.631405" y="252" style="stroke: #000000; stroke-width: 0.8"/>
      </g>
     </g>
     <g id="text_2">
      <!-- 20 -->
      <g transform="translate(121.268905 266.598437)scale(0.1 -0.1)">
       <defs>
        <path id="DejaVuSans-32" d="M 1228 531 
L 3431 531 
L 3431 0 
L 469 0 
L 469 531 
Q 828 903 1448 1529 
Q 2069 2156 2228 2338 
Q 2531 2678 2651 2914 
Q 2772 3150 2772 3378 
Q 2772 3750 2511 3984 
Q 2250 4219 1831 4219 
Q 1534 4219 1204 4116 
Q 875 4013 500 3803 
L 500 4441 
Q 881 4594 1212 4672 
Q 1544 4750 1819 4750 
Q 2544 4750 2975 4387 
Q 3406 4025 3406 3419 
Q 3406 3131 3298 2873 
Q 3191 2616 2906 2266 
Q 2828 2175 2409 1742 
Q 1991 1309 1228 531 
z
" transform="scale(0.015625)"/>
       </defs>
       <use xlink:href="#DejaVuSans-32"/>
       <use xlink:href="#DejaVuSans-30" x="63.623047"/>
      </g>
     </g>
    </g>
    <g id="xtick_3">
     <g id="line2d_3">
      <g>
       <use xlink:href="#m5730a8e152" x="189.119008" y="252" style="stroke: #000000; stroke-width: 0.8"/>
      </g>
     </g>
     <g id="text_3">
      <!-- 40 -->
      <g transform="translate(182.756508 266.598437)scale(0.1 -0.1)">
       <defs>
        <path id="DejaVuSans-34" d="M 2419 4116 
L 825 1625 
L 2419 1625 
L 2419 4116 
z
M 2253 4666 
L 3047 4666 
L 3047 1625 
L 3713 1625 
L 3713 1100 
L 3047 1100 
L 3047 0 
L 2419 0 
L 2419 1100 
L 313 1100 
L 313 1709 
L 2253 4666 
z
" transform="scale(0.015625)"/>
       </defs>
       <use xlink:href="#DejaVuSans-34"/>
       <use xlink:href="#DejaVuSans-30" x="63.623047"/>
      </g>
     </g>
    </g>
    <g id="xtick_4">
     <g id="line2d_4">
      <g>
       <use xlink:href="#m5730a8e152" x="250.606612" y="252" style="stroke: #000000; stroke-width: 0.8"/>
      </g>
     </g>
     <g id="text_4">
      <!-- 60 -->
      <g transform="translate(244.244112 266.598437)scale(0.1 -0.1)">
       <defs>
        <path id="DejaVuSans-36" d="M 2113 2584 
Q 1688 2584 1439 2293 
Q 1191 2003 1191 1497 
Q 1191 994 1439 701 
Q 1688 409 2113 409 
Q 2538 409 2786 701 
Q 3034 994 3034 1497 
Q 3034 2003 2786 2293 
Q 2538 2584 2113 2584 
z
M 3366 4563 
L 3366 3988 
Q 3128 4100 2886 4159 
Q 2644 4219 2406 4219 
Q 1781 4219 1451 3797 
Q 1122 3375 1075 2522 
Q 1259 2794 1537 2939 
Q 1816 3084 2150 3084 
Q 2853 3084 3261 2657 
Q 3669 2231 3669 1497 
Q 3669 778 3244 343 
Q 2819 -91 2113 -91 
Q 1303 -91 875 529 
Q 447 1150 447 2328 
Q 447 3434 972 4092 
Q 1497 4750 2381 4750 
Q 2619 4750 2861 4703 
Q 3103 4656 3366 4563 
z
" transform="scale(0.015625)"/>
       </defs>
       <use xlink:href="#DejaVuSans-36"/>
       <use xlink:href="#DejaVuSans-30" x="63.623047"/>
      </g>
     </g>
    </g>
    <g id="xtick_5">
     <g id="line2d_5">
      <g>
       <use xlink:href="#m5730a8e152" x="312.094215" y="252" style="stroke: #000000; stroke-width: 0.8"/>
      </g>
     </g>
     <g id="text_5">
      <!-- 80 -->
      <g transform="translate(305.731715 266.598437)scale(0.1 -0.1)">
       <defs>
        <path id="DejaVuSans-38" d="M 2034 2216 
Q 1584 2216 1326 1975 
Q 1069 1734 1069 1313 
Q 1069 891 1326 650 
Q 1584 409 2034 409 
Q 2484 409 2743 651 
Q 3003 894 3003 1313 
Q 3003 1734 2745 1975 
Q 2488 2216 2034 2216 
z
M 1403 2484 
Q 997 2584 770 2862 
Q 544 3141 544 3541 
Q 544 4100 942 4425 
Q 1341 4750 2034 4750 
Q 2731 4750 3128 4425 
Q 3525 4100 3525 3541 
Q 3525 3141 3298 2862 
Q 3072 2584 2669 2484 
Q 3125 2378 3379 2068 
Q 3634 1759 3634 1313 
Q 3634 634 3220 271 
Q 2806 -91 2034 -91 
Q 1263 -91 848 271 
Q 434 634 434 1313 
Q 434 1759 690 2068 
Q 947 2378 1403 2484 
z
M 1172 3481 
Q 1172 3119 1398 2916 
Q 1625 2713 2034 2713 
Q 2441 2713 2670 2916 
Q 2900 3119 2900 3481 
Q 2900 3844 2670 4047 
Q 2441 4250 2034 4250 
Q 1625 4250 1398 4047 
Q 1172 3844 1172 3481 
z
" transform="scale(0.015625)"/>
       </defs>
       <use xlink:href="#DejaVuSans-38"/>
       <use xlink:href="#DejaVuSans-30" x="63.623047"/>
      </g>
     </g>
    </g>
    <g id="xtick_6">
     <g id="line2d_6">
      <g>
       <use xlink:href="#m5730a8e152" x="373.581818" y="252" style="stroke: #000000; stroke-width: 0.8"/>
      </g>
     </g>
     <g id="text_6">
      <!-- 100 -->
      <g transform="translate(364.038068 266.598437)scale(0.1 -0.1)">
       <defs>
        <path id="DejaVuSans-31" d="M 794 531 
L 1825 531 
L 1825 4091 
L 703 3866 
L 703 4441 
L 1819 4666 
L 2450 4666 
L 2450 531 
L 3481 531 
L 3481 0 
L 794 0 
L 794 531 
z
" transform="scale(0.015625)"/>
       </defs>
       <use xlink:href="#DejaVuSans-31"/>
       <use xlink:href="#DejaVuSans-30" x="63.623047"/>
       <use xlink:href="#DejaVuSans-30" x="127.246094"/>
      </g>
     </g>
    </g>
    <g id="text_7">
     <!-- Number of components -->
     <g transform="translate(162.425 280.276563)scale(0.1 -0.1)">
      <defs>
       <path id="DejaVuSans-4e" d="M 628 4666 
L 1478 4666 
L 3547 763 
L 3547 4666 
L 4159 4666 
L 4159 0 
L 3309 0 
L 1241 3903 
L 1241 0 
L 628 0 
L 628 4666 
z
" transform="scale(0.015625)"/>
       <path id="DejaVuSans-75" d="M 544 1381 
L 544 3500 
L 1119 3500 
L 1119 1403 
Q 1119 906 1312 657 
Q 1506 409 1894 409 
Q 2359 409 2629 706 
Q 2900 1003 2900 1516 
L 2900 3500 
L 3475 3500 
L 3475 0 
L 2900 0 
L 2900 538 
Q 2691 219 2414 64 
Q 2138 -91 1772 -91 
Q 1169 -91 856 284 
Q 544 659 544 1381 
z
M 1991 3584 
L 1991 3584 
z
" transform="scale(0.015625)"/>
       <path id="DejaVuSans-6d" d="M 3328 2828 
Q 3544 3216 3844 3400 
Q 4144 3584 4550 3584 
Q 5097 3584 5394 3201 
Q 5691 2819 5691 2113 
L 5691 0 
L 5113 0 
L 5113 2094 
Q 5113 2597 4934 2840 
Q 4756 3084 4391 3084 
Q 3944 3084 3684 2787 
Q 3425 2491 3425 1978 
L 3425 0 
L 2847 0 
L 2847 2094 
Q 2847 2600 2669 2842 
Q 2491 3084 2119 3084 
Q 1678 3084 1418 2786 
Q 1159 2488 1159 1978 
L 1159 0 
L 581 0 
L 581 3500 
L 1159 3500 
L 1159 2956 
Q 1356 3278 1631 3431 
Q 1906 3584 2284 3584 
Q 2666 3584 2933 3390 
Q 3200 3197 3328 2828 
z
" transform="scale(0.015625)"/>
       <path id="DejaVuSans-62" d="M 3116 1747 
Q 3116 2381 2855 2742 
Q 2594 3103 2138 3103 
Q 1681 3103 1420 2742 
Q 1159 2381 1159 1747 
Q 1159 1113 1420 752 
Q 1681 391 2138 391 
Q 2594 391 2855 752 
Q 3116 1113 3116 1747 
z
M 1159 2969 
Q 1341 3281 1617 3432 
Q 1894 3584 2278 3584 
Q 2916 3584 3314 3078 
Q 3713 2572 3713 1747 
Q 3713 922 3314 415 
Q 2916 -91 2278 -91 
Q 1894 -91 1617 61 
Q 1341 213 1159 525 
L 1159 0 
L 581 0 
L 581 4863 
L 1159 4863 
L 1159 2969 
z
" transform="scale(0.015625)"/>
       <path id="DejaVuSans-65" d="M 3597 1894 
L 3597 1613 
L 953 1613 
Q 991 1019 1311 708 
Q 1631 397 2203 397 
Q 2534 397 2845 478 
Q 3156 559 3463 722 
L 3463 178 
Q 3153 47 2828 -22 
Q 2503 -91 2169 -91 
Q 1331 -91 842 396 
Q 353 884 353 1716 
Q 353 2575 817 3079 
Q 1281 3584 2069 3584 
Q 2775 3584 3186 3129 
Q 3597 2675 3597 1894 
z
M 3022 2063 
Q 3016 2534 2758 2815 
Q 2500 3097 2075 3097 
Q 1594 3097 1305 2825 
Q 1016 2553 972 2059 
L 3022 2063 
z
" transform="scale(0.015625)"/>
       <path id="DejaVuSans-72" d="M 2631 2963 
Q 2534 3019 2420 3045 
Q 2306 3072 2169 3072 
Q 1681 3072 1420 2755 
Q 1159 2438 1159 1844 
L 1159 0 
L 581 0 
L 581 3500 
L 1159 3500 
L 1159 2956 
Q 1341 3275 1631 3429 
Q 1922 3584 2338 3584 
Q 2397 3584 2469 3576 
Q 2541 3569 2628 3553 
L 2631 2963 
z
" transform="scale(0.015625)"/>
       <path id="DejaVuSans-20" transform="scale(0.015625)"/>
       <path id="DejaVuSans-6f" d="M 1959 3097 
Q 1497 3097 1228 2736 
Q 959 2375 959 1747 
Q 959 1119 1226 758 
Q 1494 397 1959 397 
Q 2419 397 2687 759 
Q 2956 1122 2956 1747 
Q 2956 2369 2687 2733 
Q 2419 3097 1959 3097 
z
M 1959 3584 
Q 2709 3584 3137 3096 
Q 3566 2609 3566 1747 
Q 3566 888 3137 398 
Q 2709 -91 1959 -91 
Q 1206 -91 779 398 
Q 353 888 353 1747 
Q 353 2609 779 3096 
Q 1206 3584 1959 3584 
z
" transform="scale(0.015625)"/>
       <path id="DejaVuSans-66" d="M 2375 4863 
L 2375 4384 
L 1825 4384 
Q 1516 4384 1395 4259 
Q 1275 4134 1275 3809 
L 1275 3500 
L 2222 3500 
L 2222 3053 
L 1275 3053 
L 1275 0 
L 697 0 
L 697 3053 
L 147 3053 
L 147 3500 
L 697 3500 
L 697 3744 
Q 697 4328 969 4595 
Q 1241 4863 1831 4863 
L 2375 4863 
z
" transform="scale(0.015625)"/>
       <path id="DejaVuSans-63" d="M 3122 3366 
L 3122 2828 
Q 2878 2963 2633 3030 
Q 2388 3097 2138 3097 
Q 1578 3097 1268 2742 
Q 959 2388 959 1747 
Q 959 1106 1268 751 
Q 1578 397 2138 397 
Q 2388 397 2633 464 
Q 2878 531 3122 666 
L 3122 134 
Q 2881 22 2623 -34 
Q 2366 -91 2075 -91 
Q 1284 -91 818 406 
Q 353 903 353 1747 
Q 353 2603 823 3093 
Q 1294 3584 2113 3584 
Q 2378 3584 2631 3529 
Q 2884 3475 3122 3366 
z
" transform="scale(0.015625)"/>
       <path id="DejaVuSans-70" d="M 1159 525 
L 1159 -1331 
L 581 -1331 
L 581 3500 
L 1159 3500 
L 1159 2969 
Q 1341 3281 1617 3432 
Q 1894 3584 2278 3584 
Q 2916 3584 3314 3078 
Q 3713 2572 3713 1747 
Q 3713 922 3314 415 
Q 2916 -91 2278 -91 
Q 1894 -91 1617 61 
Q 1341 213 1159 525 
z
M 3116 1747 
Q 3116 2381 2855 2742 
Q 2594 3103 2138 3103 
Q 1681 3103 1420 2742 
Q 1159 2381 1159 1747 
Q 1159 1113 1420 752 
Q 1681 391 2138 391 
Q 2594 391 2855 752 
Q 3116 1113 3116 1747 
z
" transform="scale(0.015625)"/>
       <path id="DejaVuSans-6e" d="M 3513 2113 
L 3513 0 
L 2938 0 
L 2938 2094 
Q 2938 2591 2744 2837 
Q 2550 3084 2163 3084 
Q 1697 3084 1428 2787 
Q 1159 2491 1159 1978 
L 1159 0 
L 581 0 
L 581 3500 
L 1159 3500 
L 1159 2956 
Q 1366 3272 1645 3428 
Q 1925 3584 2291 3584 
Q 2894 3584 3203 3211 
Q 3513 2838 3513 2113 
z
" transform="scale(0.015625)"/>
       <path id="DejaVuSans-74" d="M 1172 4494 
L 1172 3500 
L 2356 3500 
L 2356 3053 
L 1172 3053 
L 1172 1153 
Q 1172 725 1289 603 
Q 1406 481 1766 481 
L 2356 481 
L 2356 0 
L 1766 0 
Q 1100 0 847 248 
Q 594 497 594 1153 
L 594 3053 
L 172 3053 
L 172 3500 
L 594 3500 
L 594 4494 
L 1172 4494 
z
" transform="scale(0.015625)"/>
       <path id="DejaVuSans-73" d="M 2834 3397 
L 2834 2853 
Q 2591 2978 2328 3040 
Q 2066 3103 1784 3103 
Q 1356 3103 1142 2972 
Q 928 2841 928 2578 
Q 928 2378 1081 2264 
Q 1234 2150 1697 2047 
L 1894 2003 
Q 2506 1872 2764 1633 
Q 3022 1394 3022 966 
Q 3022 478 2636 193 
Q 2250 -91 1575 -91 
Q 1294 -91 989 -36 
Q 684 19 347 128 
L 347 722 
Q 666 556 975 473 
Q 1284 391 1588 391 
Q 1994 391 2212 530 
Q 2431 669 2431 922 
Q 2431 1156 2273 1281 
Q 2116 1406 1581 1522 
L 1381 1569 
Q 847 1681 609 1914 
Q 372 2147 372 2553 
Q 372 3047 722 3315 
Q 1072 3584 1716 3584 
Q 2034 3584 2315 3537 
Q 2597 3491 2834 3397 
z
" transform="scale(0.015625)"/>
      </defs>
      <use xlink:href="#DejaVuSans-4e"/>
      <use xlink:href="#DejaVuSans-75" x="74.804688"/>
      <use xlink:href="#DejaVuSans-6d" x="138.183594"/>
      <use xlink:href="#DejaVuSans-62" x="235.595703"/>
      <use xlink:href="#DejaVuSans-65" x="299.072266"/>
      <use xlink:href="#DejaVuSans-72" x="360.595703"/>
      <use xlink:href="#DejaVuSans-20" x="401.708984"/>
      <use xlink:href="#DejaVuSans-6f" x="433.496094"/>
      <use xlink:href="#DejaVuSans-66" x="494.677734"/>
      <use xlink:href="#DejaVuSans-20" x="529.882812"/>
      <use xlink:href="#DejaVuSans-63" x="561.669922"/>
      <use xlink:href="#DejaVuSans-6f" x="616.650391"/>
      <use xlink:href="#DejaVuSans-6d" x="677.832031"/>
      <use xlink:href="#DejaVuSans-70" x="775.244141"/>
      <use xlink:href="#DejaVuSans-6f" x="838.720703"/>
      <use xlink:href="#DejaVuSans-6e" x="899.902344"/>
      <use xlink:href="#DejaVuSans-65" x="963.28125"/>
      <use xlink:href="#DejaVuSans-6e" x="1024.804688"/>
      <use xlink:href="#DejaVuSans-74" x="1088.183594"/>
      <use xlink:href="#DejaVuSans-73" x="1127.392578"/>
     </g>
    </g>
   </g>
   <g id="matplotlib.axis_2">
    <g id="ytick_1">
     <g id="line2d_7">
      <defs>
       <path id="m7d9acd8271" d="M 0 0 
L -3.5 0 
" style="stroke: #000000; stroke-width: 0.8"/>
      </defs>
      <g>
       <use xlink:href="#m7d9acd8271" x="54" y="232.407154" style="stroke: #000000; stroke-width: 0.8"/>
      </g>
     </g>
     <g id="text_8">
      <!-- −4.5 -->
      <g transform="translate(22.717187 236.206373)scale(0.1 -0.1)">
       <defs>
        <path id="DejaVuSans-2212" d="M 678 2272 
L 4684 2272 
L 4684 1741 
L 678 1741 
L 678 2272 
z
" transform="scale(0.015625)"/>
        <path id="DejaVuSans-2e" d="M 684 794 
L 1344 794 
L 1344 0 
L 684 0 
L 684 794 
z
" transform="scale(0.015625)"/>
        <path id="DejaVuSans-35" d="M 691 4666 
L 3169 4666 
L 3169 4134 
L 1269 4134 
L 1269 2991 
Q 1406 3038 1543 3061 
Q 1681 3084 1819 3084 
Q 2600 3084 3056 2656 
Q 3513 2228 3513 1497 
Q 3513 744 3044 326 
Q 2575 -91 1722 -91 
Q 1428 -91 1123 -41 
Q 819 9 494 109 
L 494 744 
Q 775 591 1075 516 
Q 1375 441 1709 441 
Q 2250 441 2565 725 
Q 2881 1009 2881 1497 
Q 2881 1984 2565 2268 
Q 2250 2553 1709 2553 
Q 1456 2553 1204 2497 
Q 953 2441 691 2322 
L 691 4666 
z
" transform="scale(0.015625)"/>
       </defs>
       <use xlink:href="#DejaVuSans-2212"/>
       <use xlink:href="#DejaVuSans-34" x="83.789062"/>
       <use xlink:href="#DejaVuSans-2e" x="147.412109"/>
       <use xlink:href="#DejaVuSans-35" x="179.199219"/>
      </g>
     </g>
    </g>
    <g id="ytick_2">
     <g id="line2d_8">
      <g>
       <use xlink:href="#m7d9acd8271" x="54" y="208.170747" style="stroke: #000000; stroke-width: 0.8"/>
      </g>
     </g>
     <g id="text_9">
      <!-- −4.0 -->
      <g transform="translate(22.717187 211.969965)scale(0.1 -0.1)">
       <use xlink:href="#DejaVuSans-2212"/>
       <use xlink:href="#DejaVuSans-34" x="83.789062"/>
       <use xlink:href="#DejaVuSans-2e" x="147.412109"/>
       <use xlink:href="#DejaVuSans-30" x="179.199219"/>
      </g>
     </g>
    </g>
    <g id="ytick_3">
     <g id="line2d_9">
      <g>
       <use xlink:href="#m7d9acd8271" x="54" y="183.934339" style="stroke: #000000; stroke-width: 0.8"/>
      </g>
     </g>
     <g id="text_10">
      <!-- −3.5 -->
      <g transform="translate(22.717187 187.733558)scale(0.1 -0.1)">
       <defs>
        <path id="DejaVuSans-33" d="M 2597 2516 
Q 3050 2419 3304 2112 
Q 3559 1806 3559 1356 
Q 3559 666 3084 287 
Q 2609 -91 1734 -91 
Q 1441 -91 1130 -33 
Q 819 25 488 141 
L 488 750 
Q 750 597 1062 519 
Q 1375 441 1716 441 
Q 2309 441 2620 675 
Q 2931 909 2931 1356 
Q 2931 1769 2642 2001 
Q 2353 2234 1838 2234 
L 1294 2234 
L 1294 2753 
L 1863 2753 
Q 2328 2753 2575 2939 
Q 2822 3125 2822 3475 
Q 2822 3834 2567 4026 
Q 2313 4219 1838 4219 
Q 1578 4219 1281 4162 
Q 984 4106 628 3988 
L 628 4550 
Q 988 4650 1302 4700 
Q 1616 4750 1894 4750 
Q 2613 4750 3031 4423 
Q 3450 4097 3450 3541 
Q 3450 3153 3228 2886 
Q 3006 2619 2597 2516 
z
" transform="scale(0.015625)"/>
       </defs>
       <use xlink:href="#DejaVuSans-2212"/>
       <use xlink:href="#DejaVuSans-33" x="83.789062"/>
       <use xlink:href="#DejaVuSans-2e" x="147.412109"/>
       <use xlink:href="#DejaVuSans-35" x="179.199219"/>
      </g>
     </g>
    </g>
    <g id="ytick_4">
     <g id="line2d_10">
      <g>
       <use xlink:href="#m7d9acd8271" x="54" y="159.697931" style="stroke: #000000; stroke-width: 0.8"/>
      </g>
     </g>
     <g id="text_11">
      <!-- −3.0 -->
      <g transform="translate(22.717187 163.49715)scale(0.1 -0.1)">
       <use xlink:href="#DejaVuSans-2212"/>
       <use xlink:href="#DejaVuSans-33" x="83.789062"/>
       <use xlink:href="#DejaVuSans-2e" x="147.412109"/>
       <use xlink:href="#DejaVuSans-30" x="179.199219"/>
      </g>
     </g>
    </g>
    <g id="ytick_5">
     <g id="line2d_11">
      <g>
       <use xlink:href="#m7d9acd8271" x="54" y="135.461523" style="stroke: #000000; stroke-width: 0.8"/>
      </g>
     </g>
     <g id="text_12">
      <!-- −2.5 -->
      <g transform="translate(22.717187 139.260742)scale(0.1 -0.1)">
       <use xlink:href="#DejaVuSans-2212"/>
       <use xlink:href="#DejaVuSans-32" x="83.789062"/>
       <use xlink:href="#DejaVuSans-2e" x="147.412109"/>
       <use xlink:href="#DejaVuSans-35" x="179.199219"/>
      </g>
     </g>
    </g>
    <g id="ytick_6">
     <g id="line2d_12">
      <g>
       <use xlink:href="#m7d9acd8271" x="54" y="111.225115" style="stroke: #000000; stroke-width: 0.8"/>
      </g>
     </g>
     <g id="text_13">
      <!-- −2.0 -->
      <g transform="translate(22.717187 115.024334)scale(0.1 -0.1)">
       <use xlink:href="#DejaVuSans-2212"/>
       <use xlink:href="#DejaVuSans-32" x="83.789062"/>
       <use xlink:href="#DejaVuSans-2e" x="147.412109"/>
       <use xlink:href="#DejaVuSans-30" x="179.199219"/>
      </g>
     </g>
    </g>
    <g id="ytick_7">
     <g id="line2d_13">
      <g>
       <use xlink:href="#m7d9acd8271" x="54" y="86.988708" style="stroke: #000000; stroke-width: 0.8"/>
      </g>
     </g>
     <g id="text_14">
      <!-- −1.5 -->
      <g transform="translate(22.717187 90.787926)scale(0.1 -0.1)">
       <use xlink:href="#DejaVuSans-2212"/>
       <use xlink:href="#DejaVuSans-31" x="83.789062"/>
       <use xlink:href="#DejaVuSans-2e" x="147.412109"/>
       <use xlink:href="#DejaVuSans-35" x="179.199219"/>
      </g>
     </g>
    </g>
    <g id="ytick_8">
     <g id="line2d_14">
      <g>
       <use xlink:href="#m7d9acd8271" x="54" y="62.7523" style="stroke: #000000; stroke-width: 0.8"/>
      </g>
     </g>
     <g id="text_15">
      <!-- −1.0 -->
      <g transform="translate(22.717187 66.551518)scale(0.1 -0.1)">
       <use xlink:href="#DejaVuSans-2212"/>
       <use xlink:href="#DejaVuSans-31" x="83.789062"/>
       <use xlink:href="#DejaVuSans-2e" x="147.412109"/>
       <use xlink:href="#DejaVuSans-30" x="179.199219"/>
      </g>
     </g>
    </g>
    <g id="ytick_9">
     <g id="line2d_15">
      <g>
       <use xlink:href="#m7d9acd8271" x="54" y="38.515892" style="stroke: #000000; stroke-width: 0.8"/>
      </g>
     </g>
     <g id="text_16">
      <!-- −0.5 -->
      <g transform="translate(22.717187 42.315111)scale(0.1 -0.1)">
       <use xlink:href="#DejaVuSans-2212"/>
       <use xlink:href="#DejaVuSans-30" x="83.789062"/>
       <use xlink:href="#DejaVuSans-2e" x="147.412109"/>
       <use xlink:href="#DejaVuSans-35" x="179.199219"/>
      </g>
     </g>
    </g>
    <g id="text_17">
     <!-- Standard Deviation -->
     <g transform="translate(16.6375 191.533125)rotate(-90)scale(0.1 -0.1)">
      <defs>
       <path id="DejaVuSans-53" d="M 3425 4513 
L 3425 3897 
Q 3066 4069 2747 4153 
Q 2428 4238 2131 4238 
Q 1616 4238 1336 4038 
Q 1056 3838 1056 3469 
Q 1056 3159 1242 3001 
Q 1428 2844 1947 2747 
L 2328 2669 
Q 3034 2534 3370 2195 
Q 3706 1856 3706 1288 
Q 3706 609 3251 259 
Q 2797 -91 1919 -91 
Q 1588 -91 1214 -16 
Q 841 59 441 206 
L 441 856 
Q 825 641 1194 531 
Q 1563 422 1919 422 
Q 2459 422 2753 634 
Q 3047 847 3047 1241 
Q 3047 1584 2836 1778 
Q 2625 1972 2144 2069 
L 1759 2144 
Q 1053 2284 737 2584 
Q 422 2884 422 3419 
Q 422 4038 858 4394 
Q 1294 4750 2059 4750 
Q 2388 4750 2728 4690 
Q 3069 4631 3425 4513 
z
" transform="scale(0.015625)"/>
       <path id="DejaVuSans-61" d="M 2194 1759 
Q 1497 1759 1228 1600 
Q 959 1441 959 1056 
Q 959 750 1161 570 
Q 1363 391 1709 391 
Q 2188 391 2477 730 
Q 2766 1069 2766 1631 
L 2766 1759 
L 2194 1759 
z
M 3341 1997 
L 3341 0 
L 2766 0 
L 2766 531 
Q 2569 213 2275 61 
Q 1981 -91 1556 -91 
Q 1019 -91 701 211 
Q 384 513 384 1019 
Q 384 1609 779 1909 
Q 1175 2209 1959 2209 
L 2766 2209 
L 2766 2266 
Q 2766 2663 2505 2880 
Q 2244 3097 1772 3097 
Q 1472 3097 1187 3025 
Q 903 2953 641 2809 
L 641 3341 
Q 956 3463 1253 3523 
Q 1550 3584 1831 3584 
Q 2591 3584 2966 3190 
Q 3341 2797 3341 1997 
z
" transform="scale(0.015625)"/>
       <path id="DejaVuSans-64" d="M 2906 2969 
L 2906 4863 
L 3481 4863 
L 3481 0 
L 2906 0 
L 2906 525 
Q 2725 213 2448 61 
Q 2172 -91 1784 -91 
Q 1150 -91 751 415 
Q 353 922 353 1747 
Q 353 2572 751 3078 
Q 1150 3584 1784 3584 
Q 2172 3584 2448 3432 
Q 2725 3281 2906 2969 
z
M 947 1747 
Q 947 1113 1208 752 
Q 1469 391 1925 391 
Q 2381 391 2643 752 
Q 2906 1113 2906 1747 
Q 2906 2381 2643 2742 
Q 2381 3103 1925 3103 
Q 1469 3103 1208 2742 
Q 947 2381 947 1747 
z
" transform="scale(0.015625)"/>
       <path id="DejaVuSans-44" d="M 1259 4147 
L 1259 519 
L 2022 519 
Q 2988 519 3436 956 
Q 3884 1394 3884 2338 
Q 3884 3275 3436 3711 
Q 2988 4147 2022 4147 
L 1259 4147 
z
M 628 4666 
L 1925 4666 
Q 3281 4666 3915 4102 
Q 4550 3538 4550 2338 
Q 4550 1131 3912 565 
Q 3275 0 1925 0 
L 628 0 
L 628 4666 
z
" transform="scale(0.015625)"/>
       <path id="DejaVuSans-76" d="M 191 3500 
L 800 3500 
L 1894 563 
L 2988 3500 
L 3597 3500 
L 2284 0 
L 1503 0 
L 191 3500 
z
" transform="scale(0.015625)"/>
       <path id="DejaVuSans-69" d="M 603 3500 
L 1178 3500 
L 1178 0 
L 603 0 
L 603 3500 
z
M 603 4863 
L 1178 4863 
L 1178 4134 
L 603 4134 
L 603 4863 
z
" transform="scale(0.015625)"/>
      </defs>
      <use xlink:href="#DejaVuSans-53"/>
      <use xlink:href="#DejaVuSans-74" x="63.476562"/>
      <use xlink:href="#DejaVuSans-61" x="102.685547"/>
      <use xlink:href="#DejaVuSans-6e" x="163.964844"/>
      <use xlink:href="#DejaVuSans-64" x="227.34375"/>
      <use xlink:href="#DejaVuSans-61" x="290.820312"/>
      <use xlink:href="#DejaVuSans-72" x="352.099609"/>
      <use xlink:href="#DejaVuSans-64" x="391.462891"/>
      <use xlink:href="#DejaVuSans-20" x="454.939453"/>
      <use xlink:href="#DejaVuSans-44" x="486.726562"/>
      <use xlink:href="#DejaVuSans-65" x="563.728516"/>
      <use xlink:href="#DejaVuSans-76" x="625.251953"/>
      <use xlink:href="#DejaVuSans-69" x="684.431641"/>
      <use xlink:href="#DejaVuSans-61" x="712.214844"/>
      <use xlink:href="#DejaVuSans-74" x="773.494141"/>
      <use xlink:href="#DejaVuSans-69" x="812.703125"/>
      <use xlink:href="#DejaVuSans-6f" x="840.486328"/>
      <use xlink:href="#DejaVuSans-6e" x="901.667969"/>
     </g>
    </g>
   </g>
   <g id="line2d_16">
    <path d="M 69.218182 44.443636 
L 72.292562 164.9208 
L 75.366942 179.529005 
L 78.441322 185.321294 
L 81.515702 193.401968 
L 84.590083 205.170726 
L 87.664463 208.665964 
L 90.738843 215.396219 
L 93.813223 218.794237 
L 96.887603 220.281405 
L 99.961983 220.698 
L 103.036364 223.824892 
L 106.110744 225.024662 
L 109.185124 225.911654 
L 112.259504 226.355088 
L 115.333884 227.192197 
L 118.408264 228.16061 
L 121.482645 228.432812 
L 124.557025 228.590062 
L 127.631405 228.898131 
L 130.705785 229.359806 
L 133.780165 229.916172 
L 136.854545 230.320279 
L 139.928926 230.63605 
L 143.003306 231.025858 
L 146.077686 231.317642 
L 149.152066 231.384505 
L 152.226446 232.003025 
L 155.300826 232.255597 
L 158.375207 232.390263 
L 161.449587 232.543196 
L 164.523967 232.661742 
L 167.598347 232.961365 
L 170.672727 233.480003 
L 173.747107 233.704274 
L 176.821488 233.856104 
L 179.895868 234.223201 
L 182.970248 234.374051 
L 186.044628 234.555598 
L 189.119008 234.787858 
L 192.193388 235.030202 
L 195.267769 235.266659 
L 198.342149 235.376408 
L 201.416529 235.652488 
L 204.490909 235.788385 
L 207.565289 235.885547 
L 210.639669 236.044399 
L 213.71405 236.285726 
L 216.78843 236.32276 
L 219.86281 236.741605 
L 222.93719 236.882884 
L 226.01157 237.125388 
L 229.08595 237.278935 
L 232.160331 237.474573 
L 235.234711 237.728376 
L 238.309091 237.824719 
L 241.383471 238.020467 
L 244.457851 238.131367 
L 247.532231 238.28247 
L 250.606612 238.440557 
L 253.680992 238.592474 
L 256.755372 238.781328 
L 259.829752 238.944484 
L 262.904132 239.058057 
L 265.978512 239.275193 
L 269.052893 239.285374 
L 272.127273 239.326305 
L 275.201653 239.627641 
L 278.276033 239.728597 
L 281.350413 239.780014 
L 284.424793 239.910727 
L 287.499174 240.138589 
L 290.573554 240.187398 
L 293.647934 240.328436 
L 296.722314 240.378776 
L 299.796694 240.506419 
L 302.871074 240.607241 
L 305.945455 240.741909 
L 309.019835 240.797702 
L 312.094215 240.88114 
L 315.168595 240.958646 
L 318.242975 241.002519 
L 321.317355 241.077065 
L 324.391736 241.112744 
L 327.466116 241.198252 
L 330.540496 241.286353 
L 333.614876 241.361612 
L 336.689256 241.408355 
L 339.763636 241.422543 
L 342.838017 241.512119 
L 345.912397 241.531329 
L 348.986777 241.647667 
L 352.061157 241.711304 
L 355.135537 241.72583 
L 358.209917 241.802987 
L 361.284298 241.947998 
L 364.358678 241.974495 
L 367.433058 242.031478 
L 370.507438 242.042647 
L 373.581818 242.116364 
" clip-path="url(#p78ab817fda)" style="fill: none; stroke: #1f77b4; stroke-width: 1.5; stroke-linecap: square"/>
    <defs>
     <path id="me47480fba0" d="M 0 2.5 
C 0.663008 2.5 1.29895 2.236584 1.767767 1.767767 
C 2.236584 1.29895 2.5 0.663008 2.5 0 
C 2.5 -0.663008 2.236584 -1.29895 1.767767 -1.767767 
C 1.29895 -2.236584 0.663008 -2.5 0 -2.5 
C -0.663008 -2.5 -1.29895 -2.236584 -1.767767 -1.767767 
C -2.236584 -1.29895 -2.5 -0.663008 -2.5 0 
C -2.5 0.663008 -2.236584 1.29895 -1.767767 1.767767 
C -1.29895 2.236584 -0.663008 2.5 0 2.5 
z
" style="stroke: #1f77b4"/>
    </defs>
    <g clip-path="url(#p78ab817fda)">
     <use xlink:href="#me47480fba0" x="69.218182" y="44.443636" style="fill: #1f77b4; stroke: #1f77b4"/>
     <use xlink:href="#me47480fba0" x="72.292562" y="164.9208" style="fill: #1f77b4; stroke: #1f77b4"/>
     <use xlink:href="#me47480fba0" x="75.366942" y="179.529005" style="fill: #1f77b4; stroke: #1f77b4"/>
     <use xlink:href="#me47480fba0" x="78.441322" y="185.321294" style="fill: #1f77b4; stroke: #1f77b4"/>
     <use xlink:href="#me47480fba0" x="81.515702" y="193.401968" style="fill: #1f77b4; stroke: #1f77b4"/>
     <use xlink:href="#me47480fba0" x="84.590083" y="205.170726" style="fill: #1f77b4; stroke: #1f77b4"/>
     <use xlink:href="#me47480fba0" x="87.664463" y="208.665964" style="fill: #1f77b4; stroke: #1f77b4"/>
     <use xlink:href="#me47480fba0" x="90.738843" y="215.396219" style="fill: #1f77b4; stroke: #1f77b4"/>
     <use xlink:href="#me47480fba0" x="93.813223" y="218.794237" style="fill: #1f77b4; stroke: #1f77b4"/>
     <use xlink:href="#me47480fba0" x="96.887603" y="220.281405" style="fill: #1f77b4; stroke: #1f77b4"/>
     <use xlink:href="#me47480fba0" x="99.961983" y="220.698" style="fill: #1f77b4; stroke: #1f77b4"/>
     <use xlink:href="#me47480fba0" x="103.036364" y="223.824892" style="fill: #1f77b4; stroke: #1f77b4"/>
     <use xlink:href="#me47480fba0" x="106.110744" y="225.024662" style="fill: #1f77b4; stroke: #1f77b4"/>
     <use xlink:href="#me47480fba0" x="109.185124" y="225.911654" style="fill: #1f77b4; stroke: #1f77b4"/>
     <use xlink:href="#me47480fba0" x="112.259504" y="226.355088" style="fill: #1f77b4; stroke: #1f77b4"/>
     <use xlink:href="#me47480fba0" x="115.333884" y="227.192197" style="fill: #1f77b4; stroke: #1f77b4"/>
     <use xlink:href="#me47480fba0" x="118.408264" y="228.16061" style="fill: #1f77b4; stroke: #1f77b4"/>
     <use xlink:href="#me47480fba0" x="121.482645" y="228.432812" style="fill: #1f77b4; stroke: #1f77b4"/>
     <use xlink:href="#me47480fba0" x="124.557025" y="228.590062" style="fill: #1f77b4; stroke: #1f77b4"/>
     <use xlink:href="#me47480fba0" x="127.631405" y="228.898131" style="fill: #1f77b4; stroke: #1f77b4"/>
     <use xlink:href="#me47480fba0" x="130.705785" y="229.359806" style="fill: #1f77b4; stroke: #1f77b4"/>
     <use xlink:href="#me47480fba0" x="133.780165" y="229.916172" style="fill: #1f77b4; stroke: #1f77b4"/>
     <use xlink:href="#me47480fba0" x="136.854545" y="230.320279" style="fill: #1f77b4; stroke: #1f77b4"/>
     <use xlink:href="#me47480fba0" x="139.928926" y="230.63605" style="fill: #1f77b4; stroke: #1f77b4"/>
     <use xlink:href="#me47480fba0" x="143.003306" y="231.025858" style="fill: #1f77b4; stroke: #1f77b4"/>
     <use xlink:href="#me47480fba0" x="146.077686" y="231.317642" style="fill: #1f77b4; stroke: #1f77b4"/>
     <use xlink:href="#me47480fba0" x="149.152066" y="231.384505" style="fill: #1f77b4; stroke: #1f77b4"/>
     <use xlink:href="#me47480fba0" x="152.226446" y="232.003025" style="fill: #1f77b4; stroke: #1f77b4"/>
     <use xlink:href="#me47480fba0" x="155.300826" y="232.255597" style="fill: #1f77b4; stroke: #1f77b4"/>
     <use xlink:href="#me47480fba0" x="158.375207" y="232.390263" style="fill: #1f77b4; stroke: #1f77b4"/>
     <use xlink:href="#me47480fba0" x="161.449587" y="232.543196" style="fill: #1f77b4; stroke: #1f77b4"/>
     <use xlink:href="#me47480fba0" x="164.523967" y="232.661742" style="fill: #1f77b4; stroke: #1f77b4"/>
     <use xlink:href="#me47480fba0" x="167.598347" y="232.961365" style="fill: #1f77b4; stroke: #1f77b4"/>
     <use xlink:href="#me47480fba0" x="170.672727" y="233.480003" style="fill: #1f77b4; stroke: #1f77b4"/>
     <use xlink:href="#me47480fba0" x="173.747107" y="233.704274" style="fill: #1f77b4; stroke: #1f77b4"/>
     <use xlink:href="#me47480fba0" x="176.821488" y="233.856104" style="fill: #1f77b4; stroke: #1f77b4"/>
     <use xlink:href="#me47480fba0" x="179.895868" y="234.223201" style="fill: #1f77b4; stroke: #1f77b4"/>
     <use xlink:href="#me47480fba0" x="182.970248" y="234.374051" style="fill: #1f77b4; stroke: #1f77b4"/>
     <use xlink:href="#me47480fba0" x="186.044628" y="234.555598" style="fill: #1f77b4; stroke: #1f77b4"/>
     <use xlink:href="#me47480fba0" x="189.119008" y="234.787858" style="fill: #1f77b4; stroke: #1f77b4"/>
     <use xlink:href="#me47480fba0" x="192.193388" y="235.030202" style="fill: #1f77b4; stroke: #1f77b4"/>
     <use xlink:href="#me47480fba0" x="195.267769" y="235.266659" style="fill: #1f77b4; stroke: #1f77b4"/>
     <use xlink:href="#me47480fba0" x="198.342149" y="235.376408" style="fill: #1f77b4; stroke: #1f77b4"/>
     <use xlink:href="#me47480fba0" x="201.416529" y="235.652488" style="fill: #1f77b4; stroke: #1f77b4"/>
     <use xlink:href="#me47480fba0" x="204.490909" y="235.788385" style="fill: #1f77b4; stroke: #1f77b4"/>
     <use xlink:href="#me47480fba0" x="207.565289" y="235.885547" style="fill: #1f77b4; stroke: #1f77b4"/>
     <use xlink:href="#me47480fba0" x="210.639669" y="236.044399" style="fill: #1f77b4; stroke: #1f77b4"/>
     <use xlink:href="#me47480fba0" x="213.71405" y="236.285726" style="fill: #1f77b4; stroke: #1f77b4"/>
     <use xlink:href="#me47480fba0" x="216.78843" y="236.32276" style="fill: #1f77b4; stroke: #1f77b4"/>
     <use xlink:href="#me47480fba0" x="219.86281" y="236.741605" style="fill: #1f77b4; stroke: #1f77b4"/>
     <use xlink:href="#me47480fba0" x="222.93719" y="236.882884" style="fill: #1f77b4; stroke: #1f77b4"/>
     <use xlink:href="#me47480fba0" x="226.01157" y="237.125388" style="fill: #1f77b4; stroke: #1f77b4"/>
     <use xlink:href="#me47480fba0" x="229.08595" y="237.278935" style="fill: #1f77b4; stroke: #1f77b4"/>
     <use xlink:href="#me47480fba0" x="232.160331" y="237.474573" style="fill: #1f77b4; stroke: #1f77b4"/>
     <use xlink:href="#me47480fba0" x="235.234711" y="237.728376" style="fill: #1f77b4; stroke: #1f77b4"/>
     <use xlink:href="#me47480fba0" x="238.309091" y="237.824719" style="fill: #1f77b4; stroke: #1f77b4"/>
     <use xlink:href="#me47480fba0" x="241.383471" y="238.020467" style="fill: #1f77b4; stroke: #1f77b4"/>
     <use xlink:href="#me47480fba0" x="244.457851" y="238.131367" style="fill: #1f77b4; stroke: #1f77b4"/>
     <use xlink:href="#me47480fba0" x="247.532231" y="238.28247" style="fill: #1f77b4; stroke: #1f77b4"/>
     <use xlink:href="#me47480fba0" x="250.606612" y="238.440557" style="fill: #1f77b4; stroke: #1f77b4"/>
     <use xlink:href="#me47480fba0" x="253.680992" y="238.592474" style="fill: #1f77b4; stroke: #1f77b4"/>
     <use xlink:href="#me47480fba0" x="256.755372" y="238.781328" style="fill: #1f77b4; stroke: #1f77b4"/>
     <use xlink:href="#me47480fba0" x="259.829752" y="238.944484" style="fill: #1f77b4; stroke: #1f77b4"/>
     <use xlink:href="#me47480fba0" x="262.904132" y="239.058057" style="fill: #1f77b4; stroke: #1f77b4"/>
     <use xlink:href="#me47480fba0" x="265.978512" y="239.275193" style="fill: #1f77b4; stroke: #1f77b4"/>
     <use xlink:href="#me47480fba0" x="269.052893" y="239.285374" style="fill: #1f77b4; stroke: #1f77b4"/>
     <use xlink:href="#me47480fba0" x="272.127273" y="239.326305" style="fill: #1f77b4; stroke: #1f77b4"/>
     <use xlink:href="#me47480fba0" x="275.201653" y="239.627641" style="fill: #1f77b4; stroke: #1f77b4"/>
     <use xlink:href="#me47480fba0" x="278.276033" y="239.728597" style="fill: #1f77b4; stroke: #1f77b4"/>
     <use xlink:href="#me47480fba0" x="281.350413" y="239.780014" style="fill: #1f77b4; stroke: #1f77b4"/>
     <use xlink:href="#me47480fba0" x="284.424793" y="239.910727" style="fill: #1f77b4; stroke: #1f77b4"/>
     <use xlink:href="#me47480fba0" x="287.499174" y="240.138589" style="fill: #1f77b4; stroke: #1f77b4"/>
     <use xlink:href="#me47480fba0" x="290.573554" y="240.187398" style="fill: #1f77b4; stroke: #1f77b4"/>
     <use xlink:href="#me47480fba0" x="293.647934" y="240.328436" style="fill: #1f77b4; stroke: #1f77b4"/>
     <use xlink:href="#me47480fba0" x="296.722314" y="240.378776" style="fill: #1f77b4; stroke: #1f77b4"/>
     <use xlink:href="#me47480fba0" x="299.796694" y="240.506419" style="fill: #1f77b4; stroke: #1f77b4"/>
     <use xlink:href="#me47480fba0" x="302.871074" y="240.607241" style="fill: #1f77b4; stroke: #1f77b4"/>
     <use xlink:href="#me47480fba0" x="305.945455" y="240.741909" style="fill: #1f77b4; stroke: #1f77b4"/>
     <use xlink:href="#me47480fba0" x="309.019835" y="240.797702" style="fill: #1f77b4; stroke: #1f77b4"/>
     <use xlink:href="#me47480fba0" x="312.094215" y="240.88114" style="fill: #1f77b4; stroke: #1f77b4"/>
     <use xlink:href="#me47480fba0" x="315.168595" y="240.958646" style="fill: #1f77b4; stroke: #1f77b4"/>
     <use xlink:href="#me47480fba0" x="318.242975" y="241.002519" style="fill: #1f77b4; stroke: #1f77b4"/>
     <use xlink:href="#me47480fba0" x="321.317355" y="241.077065" style="fill: #1f77b4; stroke: #1f77b4"/>
     <use xlink:href="#me47480fba0" x="324.391736" y="241.112744" style="fill: #1f77b4; stroke: #1f77b4"/>
     <use xlink:href="#me47480fba0" x="327.466116" y="241.198252" style="fill: #1f77b4; stroke: #1f77b4"/>
     <use xlink:href="#me47480fba0" x="330.540496" y="241.286353" style="fill: #1f77b4; stroke: #1f77b4"/>
     <use xlink:href="#me47480fba0" x="333.614876" y="241.361612" style="fill: #1f77b4; stroke: #1f77b4"/>
     <use xlink:href="#me47480fba0" x="336.689256" y="241.408355" style="fill: #1f77b4; stroke: #1f77b4"/>
     <use xlink:href="#me47480fba0" x="339.763636" y="241.422543" style="fill: #1f77b4; stroke: #1f77b4"/>
     <use xlink:href="#me47480fba0" x="342.838017" y="241.512119" style="fill: #1f77b4; stroke: #1f77b4"/>
     <use xlink:href="#me47480fba0" x="345.912397" y="241.531329" style="fill: #1f77b4; stroke: #1f77b4"/>
     <use xlink:href="#me47480fba0" x="348.986777" y="241.647667" style="fill: #1f77b4; stroke: #1f77b4"/>
     <use xlink:href="#me47480fba0" x="352.061157" y="241.711304" style="fill: #1f77b4; stroke: #1f77b4"/>
     <use xlink:href="#me47480fba0" x="355.135537" y="241.72583" style="fill: #1f77b4; stroke: #1f77b4"/>
     <use xlink:href="#me47480fba0" x="358.209917" y="241.802987" style="fill: #1f77b4; stroke: #1f77b4"/>
     <use xlink:href="#me47480fba0" x="361.284298" y="241.947998" style="fill: #1f77b4; stroke: #1f77b4"/>
     <use xlink:href="#me47480fba0" x="364.358678" y="241.974495" style="fill: #1f77b4; stroke: #1f77b4"/>
     <use xlink:href="#me47480fba0" x="367.433058" y="242.031478" style="fill: #1f77b4; stroke: #1f77b4"/>
     <use xlink:href="#me47480fba0" x="370.507438" y="242.042647" style="fill: #1f77b4; stroke: #1f77b4"/>
     <use xlink:href="#me47480fba0" x="373.581818" y="242.116364" style="fill: #1f77b4; stroke: #1f77b4"/>
    </g>
   </g>
   <g id="line2d_17">
    <path d="M 219.86281 252 
L 219.86281 34.56 
" clip-path="url(#p78ab817fda)" style="fill: none; stroke: #1f77b4; stroke-width: 1.5; stroke-linecap: square"/>
   </g>
   <g id="patch_3">
    <path d="M 54 252 
L 54 34.56 
" style="fill: none; stroke: #000000; stroke-width: 0.8; stroke-linejoin: miter; stroke-linecap: square"/>
   </g>
   <g id="patch_4">
    <path d="M 388.8 252 
L 388.8 34.56 
" style="fill: none; stroke: #000000; stroke-width: 0.8; stroke-linejoin: miter; stroke-linecap: square"/>
   </g>
   <g id="patch_5">
    <path d="M 54 252 
L 388.8 252 
" style="fill: none; stroke: #000000; stroke-width: 0.8; stroke-linejoin: miter; stroke-linecap: square"/>
   </g>
   <g id="patch_6">
    <path d="M 54 34.56 
L 388.8 34.56 
" style="fill: none; stroke: #000000; stroke-width: 0.8; stroke-linejoin: miter; stroke-linecap: square"/>
   </g>
   <g id="text_18">
    <!-- blood2K -->
    <g transform="translate(197.020313 28.56)scale(0.12 -0.12)">
     <defs>
      <path id="DejaVuSans-6c" d="M 603 4863 
L 1178 4863 
L 1178 0 
L 603 0 
L 603 4863 
z
" transform="scale(0.015625)"/>
      <path id="DejaVuSans-4b" d="M 628 4666 
L 1259 4666 
L 1259 2694 
L 3353 4666 
L 4166 4666 
L 1850 2491 
L 4331 0 
L 3500 0 
L 1259 2247 
L 1259 0 
L 628 0 
L 628 4666 
z
" transform="scale(0.015625)"/>
     </defs>
     <use xlink:href="#DejaVuSans-62"/>
     <use xlink:href="#DejaVuSans-6c" x="63.476562"/>
     <use xlink:href="#DejaVuSans-6f" x="91.259766"/>
     <use xlink:href="#DejaVuSans-6f" x="152.441406"/>
     <use xlink:href="#DejaVuSans-64" x="213.623047"/>
     <use xlink:href="#DejaVuSans-32" x="277.099609"/>
     <use xlink:href="#DejaVuSans-4b" x="340.722656"/>
    </g>
   </g>
  </g>
 </g>
 <defs>
  <clipPath id="p78ab817fda">
   <rect x="54" y="34.56" width="334.8" height="217.44"/>
  </clipPath>
 </defs>
</svg>
