<?xml version="1.0" encoding="utf-8" standalone="no"?>
<!DOCTYPE svg PUBLIC "-//W3C//DTD SVG 1.1//EN"
  "http://www.w3.org/Graphics/SVG/1.1/DTD/svg11.dtd">
<svg xmlns:xlink="http://www.w3.org/1999/xlink" width="2264.512625pt" height="254.99625pt" viewBox="0 0 2264.512625 254.99625" xmlns="http://www.w3.org/2000/svg" version="1.1">
 <metadata>
  <rdf:RDF xmlns:dc="http://purl.org/dc/elements/1.1/" xmlns:cc="http://creativecommons.org/ns#" xmlns:rdf="http://www.w3.org/1999/02/22-rdf-syntax-ns#">
   <cc:Work>
    <dc:type rdf:resource="http://purl.org/dc/dcmitype/StillImage"/>
    <dc:date>2022-07-02T14:49:27.464322</dc:date>
    <dc:format>image/svg+xml</dc:format>
    <dc:creator>
     <cc:Agent>
      <dc:title>Matplotlib v3.5.2, https://matplotlib.org/</dc:title>
     </cc:Agent>
    </dc:creator>
   </cc:Work>
  </rdf:RDF>
 </metadata>
 <defs>
  <style type="text/css">*{stroke-linejoin: round; stroke-linecap: butt}</style>
 </defs>
 <g id="figure_1">
  <g id="patch_1">
   <path d="M 0 254.99625 
L 2264.512625 254.99625 
L 2264.512625 0 
L 0 0 
L 0 254.99625 
z
" style="fill: none"/>
  </g>
  <g id="axes_1">
   <g id="patch_2">
    <path d="M 34.240625 217.44 
L 392.800625 217.44 
L 392.800625 7.2 
L 34.240625 7.2 
z
" style="fill: #ffffff"/>
   </g>
   <g id="PolyCollection_1">
    <defs>
     <path id="mbe3c7bae87" d="M 195.592625 -47.112614 
L 52.168625 -47.112614 
L 66.977747 -48.287779 
L 95.451636 -49.462944 
L 114.937828 -50.63811 
L 122.109415 -51.813275 
L 123.659747 -52.988441 
L 123.863282 -54.163606 
L 123.879768 -55.338772 
L 123.880598 -56.513937 
L 123.880624 -57.689102 
L 123.880625 -58.864268 
L 123.880625 -60.039433 
L 123.880625 -61.214599 
L 123.880625 -62.389764 
L 123.880625 -63.564929 
L 123.880625 -64.740095 
L 123.880625 -65.91526 
L 123.880625 -67.090426 
L 123.880625 -68.265591 
L 123.880625 -69.440757 
L 123.880625 -70.615922 
L 123.880625 -71.791087 
L 123.880625 -72.966253 
L 123.880625 -74.141418 
L 123.880624 -75.316584 
L 123.880615 -76.491749 
L 123.880501 -77.666914 
L 123.8797 -78.84208 
L 123.87626 -80.017245 
L 123.867631 -81.192411 
L 123.856001 -82.367576 
L 123.849686 -83.542741 
L 123.850405 -84.717907 
L 123.848614 -85.893072 
L 123.840139 -87.068238 
L 123.830068 -88.243403 
L 123.820033 -89.418569 
L 123.808823 -90.593734 
L 123.797316 -91.768899 
L 123.780222 -92.944065 
L 123.744944 -94.11923 
L 123.697953 -95.294396 
L 123.671271 -96.469561 
L 123.67716 -97.644726 
L 123.689466 -98.819892 
L 123.689381 -99.995057 
L 123.689968 -101.170223 
L 123.701882 -102.345388 
L 123.71331 -103.520554 
L 123.712975 -104.695719 
L 123.710665 -105.870884 
L 123.727771 -107.04605 
L 123.765726 -108.221215 
L 123.797465 -109.396381 
L 123.802136 -110.571546 
L 123.7872 -111.746711 
L 123.774606 -112.921877 
L 123.77985 -114.097042 
L 123.798252 -115.272208 
L 123.811557 -116.447373 
L 123.807348 -117.622538 
L 123.787584 -118.797704 
L 123.769832 -119.972869 
L 123.77763 -121.148035 
L 123.812434 -122.3232 
L 123.84898 -123.498366 
L 123.865826 -124.673531 
L 123.859255 -125.848696 
L 123.83419 -127.023862 
L 123.803148 -128.199027 
L 123.785996 -129.374193 
L 123.795192 -130.549358 
L 123.821988 -131.724523 
L 123.844347 -132.899689 
L 123.850472 -134.074854 
L 123.84931 -135.25002 
L 123.852246 -136.425185 
L 123.855214 -137.600351 
L 123.852328 -138.775516 
L 123.8513 -139.950681 
L 123.859413 -141.125847 
L 123.87077 -142.301012 
L 123.877732 -143.476178 
L 123.88009 -144.651343 
L 123.880563 -145.826508 
L 123.88062 -147.001674 
L 123.880625 -148.176839 
L 123.880625 -149.352005 
L 123.880625 -150.52717 
L 123.880625 -151.702335 
L 123.880625 -152.877501 
L 123.880625 -154.052666 
L 123.880625 -155.227832 
L 123.880618 -156.402997 
L 123.880537 -157.578163 
L 123.879918 -158.753328 
L 123.877056 -159.928493 
L 123.869281 -161.103659 
L 123.857918 -162.278824 
L 123.852009 -163.45399 
L 123.909241 -163.45399 
L 123.909241 -163.45399 
L 123.903332 -162.278824 
L 123.891969 -161.103659 
L 123.884194 -159.928493 
L 123.881332 -158.753328 
L 123.880713 -157.578163 
L 123.880632 -156.402997 
L 123.880625 -155.227832 
L 123.880625 -154.052666 
L 123.880625 -152.877501 
L 123.880625 -151.702335 
L 123.880625 -150.52717 
L 123.880625 -149.352005 
L 123.880625 -148.176839 
L 123.88063 -147.001674 
L 123.880687 -145.826508 
L 123.88116 -144.651343 
L 123.883518 -143.476178 
L 123.89048 -142.301012 
L 123.901837 -141.125847 
L 123.90995 -139.950681 
L 123.908922 -138.775516 
L 123.906036 -137.600351 
L 123.909004 -136.425185 
L 123.91194 -135.25002 
L 123.910778 -134.074854 
L 123.916903 -132.899689 
L 123.939262 -131.724523 
L 123.966058 -130.549358 
L 123.975254 -129.374193 
L 123.958102 -128.199027 
L 123.92706 -127.023862 
L 123.901995 -125.848696 
L 123.895424 -124.673531 
L 123.91227 -123.498366 
L 123.948816 -122.3232 
L 123.98362 -121.148035 
L 123.991418 -119.972869 
L 123.973666 -118.797704 
L 123.953902 -117.622538 
L 123.949693 -116.447373 
L 123.962998 -115.272208 
L 123.9814 -114.097042 
L 123.986644 -112.921877 
L 123.97405 -111.746711 
L 123.959114 -110.571546 
L 123.963785 -109.396381 
L 123.995524 -108.221215 
L 124.033479 -107.04605 
L 124.050585 -105.870884 
L 124.048275 -104.695719 
L 124.04794 -103.520554 
L 124.059368 -102.345388 
L 124.071282 -101.170223 
L 124.071869 -99.995057 
L 124.071784 -98.819892 
L 124.08409 -97.644726 
L 124.089979 -96.469561 
L 124.063297 -95.294396 
L 124.016306 -94.11923 
L 123.981028 -92.944065 
L 123.963934 -91.768899 
L 123.952427 -90.593734 
L 123.941217 -89.418569 
L 123.931182 -88.243403 
L 123.921111 -87.068238 
L 123.912636 -85.893072 
L 123.910845 -84.717907 
L 123.911564 -83.542741 
L 123.905249 -82.367576 
L 123.893619 -81.192411 
L 123.88499 -80.017245 
L 123.88155 -78.84208 
L 123.880749 -77.666914 
L 123.880635 -76.491749 
L 123.880626 -75.316584 
L 123.880625 -74.141418 
L 123.880625 -72.966253 
L 123.880625 -71.791087 
L 123.880625 -70.615922 
L 123.880625 -69.440757 
L 123.880625 -68.265591 
L 123.880625 -67.090426 
L 123.880625 -65.91526 
L 123.880625 -64.740095 
L 123.880625 -63.564929 
L 123.880625 -62.389764 
L 123.880625 -61.214599 
L 123.880625 -60.039433 
L 123.880625 -58.864268 
L 123.880626 -57.689102 
L 123.880652 -56.513937 
L 123.881482 -55.338772 
L 123.897968 -54.163606 
L 124.101503 -52.988441 
L 125.651835 -51.813275 
L 132.823422 -50.63811 
L 152.309614 -49.462944 
L 180.783503 -48.287779 
L 195.592625 -47.112614 
z
" style="stroke: #454545; stroke-width: 1.5"/>
    </defs>
    <g clip-path="url(#p43d4110b0a)">
     <use xlink:href="#mbe3c7bae87" x="0" y="254.99625" style="fill: #e9c767; stroke: #454545; stroke-width: 1.5"/>
    </g>
   </g>
   <g id="PolyCollection_2">
    <defs>
     <path id="ma5e3305a92" d="M 323.330539 -47.112614 
L 282.990711 -47.112614 
L 282.764791 -49.043192 
L 282.740901 -50.973771 
L 282.878471 -52.904349 
L 283.123862 -54.834928 
L 283.414107 -56.765506 
L 283.681487 -58.696085 
L 283.85853 -60.626663 
L 283.882951 -62.557242 
L 283.702116 -64.48782 
L 283.276637 -66.418399 
L 282.582827 -68.348977 
L 281.613857 -70.279556 
L 280.379584 -72.210134 
L 278.905147 -74.140713 
L 277.22851 -76.071291 
L 275.397203 -78.00187 
L 273.464589 -79.932448 
L 271.485932 -81.863027 
L 269.514607 -83.793605 
L 267.598697 -85.724184 
L 265.778196 -87.654762 
L 264.082996 -89.585341 
L 262.531731 -91.515919 
L 261.131504 -93.446498 
L 259.878461 -95.377076 
L 258.759101 -97.307655 
L 257.75217 -99.238233 
L 256.830943 -101.168812 
L 255.965697 -103.09939 
L 255.126155 -105.029969 
L 254.283722 -106.960548 
L 253.413348 -108.891126 
L 252.49492 -110.821705 
L 251.514126 -112.752283 
L 250.462793 -114.682862 
L 249.338766 -116.61344 
L 248.145396 -118.544019 
L 246.890778 -120.474597 
L 245.586839 -122.405176 
L 244.248401 -124.335754 
L 242.892299 -126.266333 
L 241.536623 -128.196911 
L 240.200088 -130.12749 
L 238.901533 -132.058068 
L 237.659518 -133.988647 
L 236.491957 -135.919225 
L 235.415757 -137.849804 
L 234.446414 -139.780382 
L 233.597559 -141.710961 
L 232.880471 -143.641539 
L 232.303597 -145.572118 
L 231.872136 -147.502696 
L 231.587773 -149.433275 
L 231.448625 -151.363853 
L 231.449461 -153.294432 
L 231.582216 -155.22501 
L 231.836792 -157.155589 
L 232.202093 -159.086167 
L 232.667212 -161.016746 
L 233.22264 -162.947324 
L 233.861394 -164.877903 
L 234.579909 -166.808481 
L 235.378609 -168.73906 
L 236.26207 -170.669638 
L 237.238747 -172.600217 
L 238.320271 -174.530795 
L 239.520379 -176.461374 
L 240.853561 -178.391952 
L 242.333557 -180.322531 
L 243.971832 -182.25311 
L 245.776163 -184.183688 
L 247.749471 -186.114267 
L 249.888983 -188.044845 
L 252.1858 -189.975424 
L 254.624887 -191.906002 
L 257.18549 -193.836581 
L 259.841919 -195.767159 
L 262.56464 -197.697738 
L 265.321575 -199.628316 
L 268.079517 -201.558895 
L 270.805554 -203.489473 
L 273.468429 -205.420052 
L 276.039727 -207.35063 
L 278.494875 -209.281209 
L 280.81387 -211.211787 
L 282.981754 -213.142366 
L 284.988798 -215.072944 
L 286.830433 -217.003523 
L 288.506929 -218.934101 
L 290.022874 -220.86468 
L 291.38647 -222.795258 
L 292.608728 -224.725837 
L 293.702579 -226.656415 
L 294.681992 -228.586994 
L 295.561123 -230.517572 
L 296.353571 -232.448151 
L 297.07176 -234.378729 
L 297.726504 -236.309308 
L 298.326735 -238.239886 
L 307.994515 -238.239886 
L 307.994515 -238.239886 
L 308.594746 -236.309308 
L 309.24949 -234.378729 
L 309.967679 -232.448151 
L 310.760127 -230.517572 
L 311.639258 -228.586994 
L 312.618671 -226.656415 
L 313.712522 -224.725837 
L 314.93478 -222.795258 
L 316.298376 -220.86468 
L 317.814321 -218.934101 
L 319.490817 -217.003523 
L 321.332452 -215.072944 
L 323.339496 -213.142366 
L 325.50738 -211.211787 
L 327.826375 -209.281209 
L 330.281523 -207.35063 
L 332.852821 -205.420052 
L 335.515696 -203.489473 
L 338.241733 -201.558895 
L 340.999675 -199.628316 
L 343.75661 -197.697738 
L 346.479331 -195.767159 
L 349.13576 -193.836581 
L 351.696363 -191.906002 
L 354.13545 -189.975424 
L 356.432267 -188.044845 
L 358.571779 -186.114267 
L 360.545087 -184.183688 
L 362.349418 -182.25311 
L 363.987693 -180.322531 
L 365.467689 -178.391952 
L 366.800871 -176.461374 
L 368.000979 -174.530795 
L 369.082503 -172.600217 
L 370.05918 -170.669638 
L 370.942641 -168.73906 
L 371.741341 -166.808481 
L 372.459856 -164.877903 
L 373.09861 -162.947324 
L 373.654038 -161.016746 
L 374.119157 -159.086167 
L 374.484458 -157.155589 
L 374.739034 -155.22501 
L 374.871789 -153.294432 
L 374.872625 -151.363853 
L 374.733477 -149.433275 
L 374.449114 -147.502696 
L 374.017653 -145.572118 
L 373.440779 -143.641539 
L 372.723691 -141.710961 
L 371.874836 -139.780382 
L 370.905493 -137.849804 
L 369.829293 -135.919225 
L 368.661732 -133.988647 
L 367.419717 -132.058068 
L 366.121162 -130.12749 
L 364.784627 -128.196911 
L 363.428951 -126.266333 
L 362.072849 -124.335754 
L 360.734411 -122.405176 
L 359.430472 -120.474597 
L 358.175854 -118.544019 
L 356.982484 -116.61344 
L 355.858457 -114.682862 
L 354.807124 -112.752283 
L 353.82633 -110.821705 
L 352.907902 -108.891126 
L 352.037528 -106.960548 
L 351.195095 -105.029969 
L 350.355553 -103.09939 
L 349.490307 -101.168812 
L 348.56908 -99.238233 
L 347.562149 -97.307655 
L 346.442789 -95.377076 
L 345.189746 -93.446498 
L 343.789519 -91.515919 
L 342.238254 -89.585341 
L 340.543054 -87.654762 
L 338.722553 -85.724184 
L 336.806643 -83.793605 
L 334.835318 -81.863027 
L 332.856661 -79.932448 
L 330.924047 -78.00187 
L 329.09274 -76.071291 
L 327.416103 -74.140713 
L 325.941666 -72.210134 
L 324.707393 -70.279556 
L 323.738423 -68.348977 
L 323.044613 -66.418399 
L 322.619134 -64.48782 
L 322.438299 -62.557242 
L 322.46272 -60.626663 
L 322.639763 -58.696085 
L 322.907143 -56.765506 
L 323.197388 -54.834928 
L 323.442779 -52.904349 
L 323.580349 -50.973771 
L 323.556459 -49.043192 
L 323.330539 -47.112614 
z
" style="stroke: #454545; stroke-width: 1.5"/>
    </defs>
    <g clip-path="url(#p43d4110b0a)">
     <use xlink:href="#ma5e3305a92" x="0" y="254.99625" style="fill: #1d9dca; stroke: #454545; stroke-width: 1.5"/>
    </g>
   </g>
   <g id="matplotlib.axis_1">
    <g id="xtick_1">
     <g id="line2d_1">
      <defs>
       <path id="mae5703e15d" d="M 0 0 
L 0 3.5 
" style="stroke: #000000; stroke-width: 0.8"/>
      </defs>
      <g>
       <use xlink:href="#mae5703e15d" x="123.880625" y="217.44" style="stroke: #000000; stroke-width: 0.8"/>
      </g>
     </g>
     <g id="text_1">
      <!-- 0 -->
      <g transform="translate(120.699375 232.038438)scale(0.1 -0.1)">
       <defs>
        <path id="DejaVuSans-30" d="M 2034 4250 
Q 1547 4250 1301 3770 
Q 1056 3291 1056 2328 
Q 1056 1369 1301 889 
Q 1547 409 2034 409 
Q 2525 409 2770 889 
Q 3016 1369 3016 2328 
Q 3016 3291 2770 3770 
Q 2525 4250 2034 4250 
z
M 2034 4750 
Q 2819 4750 3233 4129 
Q 3647 3509 3647 2328 
Q 3647 1150 3233 529 
Q 2819 -91 2034 -91 
Q 1250 -91 836 529 
Q 422 1150 422 2328 
Q 422 3509 836 4129 
Q 1250 4750 2034 4750 
z
" transform="scale(0.015625)"/>
       </defs>
       <use xlink:href="#DejaVuSans-30"/>
      </g>
     </g>
    </g>
    <g id="xtick_2">
     <g id="line2d_2">
      <g>
       <use xlink:href="#mae5703e15d" x="303.160625" y="217.44" style="stroke: #000000; stroke-width: 0.8"/>
      </g>
     </g>
     <g id="text_2">
      <!-- 1 -->
      <g transform="translate(299.979375 232.038438)scale(0.1 -0.1)">
       <defs>
        <path id="DejaVuSans-31" d="M 794 531 
L 1825 531 
L 1825 4091 
L 703 3866 
L 703 4441 
L 1819 4666 
L 2450 4666 
L 2450 531 
L 3481 531 
L 3481 0 
L 794 0 
L 794 531 
z
" transform="scale(0.015625)"/>
       </defs>
       <use xlink:href="#DejaVuSans-31"/>
      </g>
     </g>
    </g>
    <g id="text_3">
     <!-- louvain -->
     <g transform="translate(195.322187 245.716563)scale(0.1 -0.1)">
      <defs>
       <path id="DejaVuSans-6c" d="M 603 4863 
L 1178 4863 
L 1178 0 
L 603 0 
L 603 4863 
z
" transform="scale(0.015625)"/>
       <path id="DejaVuSans-6f" d="M 1959 3097 
Q 1497 3097 1228 2736 
Q 959 2375 959 1747 
Q 959 1119 1226 758 
Q 1494 397 1959 397 
Q 2419 397 2687 759 
Q 2956 1122 2956 1747 
Q 2956 2369 2687 2733 
Q 2419 3097 1959 3097 
z
M 1959 3584 
Q 2709 3584 3137 3096 
Q 3566 2609 3566 1747 
Q 3566 888 3137 398 
Q 2709 -91 1959 -91 
Q 1206 -91 779 398 
Q 353 888 353 1747 
Q 353 2609 779 3096 
Q 1206 3584 1959 3584 
z
" transform="scale(0.015625)"/>
       <path id="DejaVuSans-75" d="M 544 1381 
L 544 3500 
L 1119 3500 
L 1119 1403 
Q 1119 906 1312 657 
Q 1506 409 1894 409 
Q 2359 409 2629 706 
Q 2900 1003 2900 1516 
L 2900 3500 
L 3475 3500 
L 3475 0 
L 2900 0 
L 2900 538 
Q 2691 219 2414 64 
Q 2138 -91 1772 -91 
Q 1169 -91 856 284 
Q 544 659 544 1381 
z
M 1991 3584 
L 1991 3584 
z
" transform="scale(0.015625)"/>
       <path id="DejaVuSans-76" d="M 191 3500 
L 800 3500 
L 1894 563 
L 2988 3500 
L 3597 3500 
L 2284 0 
L 1503 0 
L 191 3500 
z
" transform="scale(0.015625)"/>
       <path id="DejaVuSans-61" d="M 2194 1759 
Q 1497 1759 1228 1600 
Q 959 1441 959 1056 
Q 959 750 1161 570 
Q 1363 391 1709 391 
Q 2188 391 2477 730 
Q 2766 1069 2766 1631 
L 2766 1759 
L 2194 1759 
z
M 3341 1997 
L 3341 0 
L 2766 0 
L 2766 531 
Q 2569 213 2275 61 
Q 1981 -91 1556 -91 
Q 1019 -91 701 211 
Q 384 513 384 1019 
Q 384 1609 779 1909 
Q 1175 2209 1959 2209 
L 2766 2209 
L 2766 2266 
Q 2766 2663 2505 2880 
Q 2244 3097 1772 3097 
Q 1472 3097 1187 3025 
Q 903 2953 641 2809 
L 641 3341 
Q 956 3463 1253 3523 
Q 1550 3584 1831 3584 
Q 2591 3584 2966 3190 
Q 3341 2797 3341 1997 
z
" transform="scale(0.015625)"/>
       <path id="DejaVuSans-69" d="M 603 3500 
L 1178 3500 
L 1178 0 
L 603 0 
L 603 3500 
z
M 603 4863 
L 1178 4863 
L 1178 4134 
L 603 4134 
L 603 4863 
z
" transform="scale(0.015625)"/>
       <path id="DejaVuSans-6e" d="M 3513 2113 
L 3513 0 
L 2938 0 
L 2938 2094 
Q 2938 2591 2744 2837 
Q 2550 3084 2163 3084 
Q 1697 3084 1428 2787 
Q 1159 2491 1159 1978 
L 1159 0 
L 581 0 
L 581 3500 
L 1159 3500 
L 1159 2956 
Q 1366 3272 1645 3428 
Q 1925 3584 2291 3584 
Q 2894 3584 3203 3211 
Q 3513 2838 3513 2113 
z
" transform="scale(0.015625)"/>
      </defs>
      <use xlink:href="#DejaVuSans-6c"/>
      <use xlink:href="#DejaVuSans-6f" x="27.783203"/>
      <use xlink:href="#DejaVuSans-75" x="88.964844"/>
      <use xlink:href="#DejaVuSans-76" x="152.34375"/>
      <use xlink:href="#DejaVuSans-61" x="211.523438"/>
      <use xlink:href="#DejaVuSans-69" x="272.802734"/>
      <use xlink:href="#DejaVuSans-6e" x="300.585938"/>
     </g>
    </g>
   </g>
   <g id="matplotlib.axis_2">
    <g id="ytick_1">
     <g id="line2d_3">
      <defs>
       <path id="m01cb00bb90" d="M 0 0 
L -3.5 0 
" style="stroke: #000000; stroke-width: 0.8"/>
      </defs>
      <g>
       <use xlink:href="#m01cb00bb90" x="34.240625" y="199.102719" style="stroke: #000000; stroke-width: 0.8"/>
      </g>
     </g>
     <g id="text_4">
      <!-- 0 -->
      <g transform="translate(20.878125 202.901938)scale(0.1 -0.1)">
       <use xlink:href="#DejaVuSans-30"/>
      </g>
     </g>
    </g>
    <g id="ytick_2">
     <g id="line2d_4">
      <g>
       <use xlink:href="#m01cb00bb90" x="34.240625" y="169.594103" style="stroke: #000000; stroke-width: 0.8"/>
      </g>
     </g>
     <g id="text_5">
      <!-- 1 -->
      <g transform="translate(20.878125 173.393322)scale(0.1 -0.1)">
       <use xlink:href="#DejaVuSans-31"/>
      </g>
     </g>
    </g>
    <g id="ytick_3">
     <g id="line2d_5">
      <g>
       <use xlink:href="#m01cb00bb90" x="34.240625" y="140.085488" style="stroke: #000000; stroke-width: 0.8"/>
      </g>
     </g>
     <g id="text_6">
      <!-- 2 -->
      <g transform="translate(20.878125 143.884706)scale(0.1 -0.1)">
       <defs>
        <path id="DejaVuSans-32" d="M 1228 531 
L 3431 531 
L 3431 0 
L 469 0 
L 469 531 
Q 828 903 1448 1529 
Q 2069 2156 2228 2338 
Q 2531 2678 2651 2914 
Q 2772 3150 2772 3378 
Q 2772 3750 2511 3984 
Q 2250 4219 1831 4219 
Q 1534 4219 1204 4116 
Q 875 4013 500 3803 
L 500 4441 
Q 881 4594 1212 4672 
Q 1544 4750 1819 4750 
Q 2544 4750 2975 4387 
Q 3406 4025 3406 3419 
Q 3406 3131 3298 2873 
Q 3191 2616 2906 2266 
Q 2828 2175 2409 1742 
Q 1991 1309 1228 531 
z
" transform="scale(0.015625)"/>
       </defs>
       <use xlink:href="#DejaVuSans-32"/>
      </g>
     </g>
    </g>
    <g id="ytick_4">
     <g id="line2d_6">
      <g>
       <use xlink:href="#m01cb00bb90" x="34.240625" y="110.576872" style="stroke: #000000; stroke-width: 0.8"/>
      </g>
     </g>
     <g id="text_7">
      <!-- 3 -->
      <g transform="translate(20.878125 114.376091)scale(0.1 -0.1)">
       <defs>
        <path id="DejaVuSans-33" d="M 2597 2516 
Q 3050 2419 3304 2112 
Q 3559 1806 3559 1356 
Q 3559 666 3084 287 
Q 2609 -91 1734 -91 
Q 1441 -91 1130 -33 
Q 819 25 488 141 
L 488 750 
Q 750 597 1062 519 
Q 1375 441 1716 441 
Q 2309 441 2620 675 
Q 2931 909 2931 1356 
Q 2931 1769 2642 2001 
Q 2353 2234 1838 2234 
L 1294 2234 
L 1294 2753 
L 1863 2753 
Q 2328 2753 2575 2939 
Q 2822 3125 2822 3475 
Q 2822 3834 2567 4026 
Q 2313 4219 1838 4219 
Q 1578 4219 1281 4162 
Q 984 4106 628 3988 
L 628 4550 
Q 988 4650 1302 4700 
Q 1616 4750 1894 4750 
Q 2613 4750 3031 4423 
Q 3450 4097 3450 3541 
Q 3450 3153 3228 2886 
Q 3006 2619 2597 2516 
z
" transform="scale(0.015625)"/>
       </defs>
       <use xlink:href="#DejaVuSans-33"/>
      </g>
     </g>
    </g>
    <g id="ytick_5">
     <g id="line2d_7">
      <g>
       <use xlink:href="#m01cb00bb90" x="34.240625" y="81.068256" style="stroke: #000000; stroke-width: 0.8"/>
      </g>
     </g>
     <g id="text_8">
      <!-- 4 -->
      <g transform="translate(20.878125 84.867475)scale(0.1 -0.1)">
       <defs>
        <path id="DejaVuSans-34" d="M 2419 4116 
L 825 1625 
L 2419 1625 
L 2419 4116 
z
M 2253 4666 
L 3047 4666 
L 3047 1625 
L 3713 1625 
L 3713 1100 
L 3047 1100 
L 3047 0 
L 2419 0 
L 2419 1100 
L 313 1100 
L 313 1709 
L 2253 4666 
z
" transform="scale(0.015625)"/>
       </defs>
       <use xlink:href="#DejaVuSans-34"/>
      </g>
     </g>
    </g>
    <g id="ytick_6">
     <g id="line2d_8">
      <g>
       <use xlink:href="#m01cb00bb90" x="34.240625" y="51.55964" style="stroke: #000000; stroke-width: 0.8"/>
      </g>
     </g>
     <g id="text_9">
      <!-- 5 -->
      <g transform="translate(20.878125 55.358859)scale(0.1 -0.1)">
       <defs>
        <path id="DejaVuSans-35" d="M 691 4666 
L 3169 4666 
L 3169 4134 
L 1269 4134 
L 1269 2991 
Q 1406 3038 1543 3061 
Q 1681 3084 1819 3084 
Q 2600 3084 3056 2656 
Q 3513 2228 3513 1497 
Q 3513 744 3044 326 
Q 2575 -91 1722 -91 
Q 1428 -91 1123 -41 
Q 819 9 494 109 
L 494 744 
Q 775 591 1075 516 
Q 1375 441 1709 441 
Q 2250 441 2565 725 
Q 2881 1009 2881 1497 
Q 2881 1984 2565 2268 
Q 2250 2553 1709 2553 
Q 1456 2553 1204 2497 
Q 953 2441 691 2322 
L 691 4666 
z
" transform="scale(0.015625)"/>
       </defs>
       <use xlink:href="#DejaVuSans-35"/>
      </g>
     </g>
    </g>
    <g id="ytick_7">
     <g id="line2d_9">
      <g>
       <use xlink:href="#m01cb00bb90" x="34.240625" y="22.051024" style="stroke: #000000; stroke-width: 0.8"/>
      </g>
     </g>
     <g id="text_10">
      <!-- 6 -->
      <g transform="translate(20.878125 25.850243)scale(0.1 -0.1)">
       <defs>
        <path id="DejaVuSans-36" d="M 2113 2584 
Q 1688 2584 1439 2293 
Q 1191 2003 1191 1497 
Q 1191 994 1439 701 
Q 1688 409 2113 409 
Q 2538 409 2786 701 
Q 3034 994 3034 1497 
Q 3034 2003 2786 2293 
Q 2538 2584 2113 2584 
z
M 3366 4563 
L 3366 3988 
Q 3128 4100 2886 4159 
Q 2644 4219 2406 4219 
Q 1781 4219 1451 3797 
Q 1122 3375 1075 2522 
Q 1259 2794 1537 2939 
Q 1816 3084 2150 3084 
Q 2853 3084 3261 2657 
Q 3669 2231 3669 1497 
Q 3669 778 3244 343 
Q 2819 -91 2113 -91 
Q 1303 -91 875 529 
Q 447 1150 447 2328 
Q 447 3434 972 4092 
Q 1497 4750 2381 4750 
Q 2619 4750 2861 4703 
Q 3103 4656 3366 4563 
z
" transform="scale(0.015625)"/>
       </defs>
       <use xlink:href="#DejaVuSans-36"/>
      </g>
     </g>
    </g>
    <g id="text_11">
     <!-- BCL11B -->
     <g transform="translate(14.798437 131.733281)rotate(-90)scale(0.1 -0.1)">
      <defs>
       <path id="DejaVuSans-42" d="M 1259 2228 
L 1259 519 
L 2272 519 
Q 2781 519 3026 730 
Q 3272 941 3272 1375 
Q 3272 1813 3026 2020 
Q 2781 2228 2272 2228 
L 1259 2228 
z
M 1259 4147 
L 1259 2741 
L 2194 2741 
Q 2656 2741 2882 2914 
Q 3109 3088 3109 3444 
Q 3109 3797 2882 3972 
Q 2656 4147 2194 4147 
L 1259 4147 
z
M 628 4666 
L 2241 4666 
Q 2963 4666 3353 4366 
Q 3744 4066 3744 3513 
Q 3744 3084 3544 2831 
Q 3344 2578 2956 2516 
Q 3422 2416 3680 2098 
Q 3938 1781 3938 1306 
Q 3938 681 3513 340 
Q 3088 0 2303 0 
L 628 0 
L 628 4666 
z
" transform="scale(0.015625)"/>
       <path id="DejaVuSans-43" d="M 4122 4306 
L 4122 3641 
Q 3803 3938 3442 4084 
Q 3081 4231 2675 4231 
Q 1875 4231 1450 3742 
Q 1025 3253 1025 2328 
Q 1025 1406 1450 917 
Q 1875 428 2675 428 
Q 3081 428 3442 575 
Q 3803 722 4122 1019 
L 4122 359 
Q 3791 134 3420 21 
Q 3050 -91 2638 -91 
Q 1578 -91 968 557 
Q 359 1206 359 2328 
Q 359 3453 968 4101 
Q 1578 4750 2638 4750 
Q 3056 4750 3426 4639 
Q 3797 4528 4122 4306 
z
" transform="scale(0.015625)"/>
       <path id="DejaVuSans-4c" d="M 628 4666 
L 1259 4666 
L 1259 531 
L 3531 531 
L 3531 0 
L 628 0 
L 628 4666 
z
" transform="scale(0.015625)"/>
      </defs>
      <use xlink:href="#DejaVuSans-42"/>
      <use xlink:href="#DejaVuSans-43" x="66.853516"/>
      <use xlink:href="#DejaVuSans-4c" x="136.677734"/>
      <use xlink:href="#DejaVuSans-31" x="192.390625"/>
      <use xlink:href="#DejaVuSans-31" x="256.013672"/>
      <use xlink:href="#DejaVuSans-42" x="319.636719"/>
     </g>
    </g>
   </g>
   <g id="line2d_10">
    <path d="M 123.880625 207.883636 
L 123.880625 207.883636 
" clip-path="url(#p43d4110b0a)" style="fill: none; stroke: #454545; stroke-width: 1.5; stroke-linecap: square"/>
   </g>
   <g id="line2d_11">
    <path d="M 123.880625 207.883636 
L 123.880625 207.883636 
" clip-path="url(#p43d4110b0a)" style="fill: none; stroke: #454545; stroke-width: 4.5; stroke-linecap: square"/>
   </g>
   <g id="line2d_12">
    <path d="M 303.160625 207.883636 
L 303.160625 16.756364 
" clip-path="url(#p43d4110b0a)" style="fill: none; stroke: #454545; stroke-width: 1.5; stroke-linecap: square"/>
   </g>
   <g id="line2d_13">
    <path d="M 303.160625 148.813657 
L 303.160625 82.877353 
" clip-path="url(#p43d4110b0a)" style="fill: none; stroke: #454545; stroke-width: 4.5; stroke-linecap: square"/>
   </g>
   <g id="patch_3">
    <path d="M 34.240625 217.44 
L 34.240625 7.2 
" style="fill: none; stroke: #000000; stroke-width: 0.8; stroke-linejoin: miter; stroke-linecap: square"/>
   </g>
   <g id="patch_4">
    <path d="M 392.800625 217.44 
L 392.800625 7.2 
" style="fill: none; stroke: #000000; stroke-width: 0.8; stroke-linejoin: miter; stroke-linecap: square"/>
   </g>
   <g id="patch_5">
    <path d="M 34.240625 217.44 
L 392.800625 217.44 
" style="fill: none; stroke: #000000; stroke-width: 0.8; stroke-linejoin: miter; stroke-linecap: square"/>
   </g>
   <g id="patch_6">
    <path d="M 34.240625 7.2 
L 392.800625 7.2 
" style="fill: none; stroke: #000000; stroke-width: 0.8; stroke-linejoin: miter; stroke-linecap: square"/>
   </g>
   <g id="PathCollection_1">
    <defs>
     <path id="me6b982f825" d="M 0 1.5 
C 0.397805 1.5 0.77937 1.341951 1.06066 1.06066 
C 1.341951 0.77937 1.5 0.397805 1.5 0 
C 1.5 -0.397805 1.341951 -0.77937 1.06066 -1.06066 
C 0.77937 -1.341951 0.397805 -1.5 0 -1.5 
C -0.397805 -1.5 -0.77937 -1.341951 -1.06066 -1.06066 
C -1.341951 -0.77937 -1.5 -0.397805 -1.5 0 
C -1.5 0.397805 -1.341951 0.77937 -1.06066 1.06066 
C -0.77937 1.341951 -0.397805 1.5 0 1.5 
z
" style="stroke: #454545"/>
    </defs>
    <g clip-path="url(#p43d4110b0a)">
     <use xlink:href="#me6b982f825" x="123.880625" y="207.883636" style="fill: #ffffff; stroke: #454545"/>
    </g>
   </g>
   <g id="PathCollection_2">
    <g clip-path="url(#p43d4110b0a)">
     <use xlink:href="#me6b982f825" x="303.160625" y="110.759884" style="fill: #ffffff; stroke: #454545"/>
    </g>
   </g>
  </g>
  <g id="axes_2">
   <g id="patch_7">
    <path d="M 500.368625 217.44 
L 858.928625 217.44 
L 858.928625 7.2 
L 500.368625 7.2 
z
" style="fill: #ffffff"/>
   </g>
   <g id="PolyCollection_3">
    <defs>
     <path id="m99bbc2a1e9" d="M 661.720625 -47.112614 
L 518.296625 -47.112614 
L 529.583283 -48.323065 
L 553.859237 -49.533517 
L 574.654066 -50.743968 
L 585.378121 -51.95442 
L 589.017168 -53.164871 
L 589.857904 -54.375323 
L 589.992357 -55.585774 
L 590.007378 -56.796225 
L 590.008555 -58.006677 
L 590.008603 -59.217128 
L 590.008475 -60.42758 
L 590.007781 -61.638031 
L 590.005253 -62.848483 
L 589.999059 -64.058934 
L 589.989354 -65.269386 
L 589.981064 -66.479837 
L 589.980638 -67.690289 
L 589.988447 -68.90074 
L 589.998295 -70.111192 
L 590.004854 -71.321643 
L 590.007512 -72.532095 
L 590.007605 -73.742546 
L 590.005068 -74.952998 
L 589.997835 -76.163449 
L 589.984233 -77.373901 
L 589.96655 -78.584352 
L 589.950131 -79.794804 
L 589.936478 -81.005255 
L 589.919961 -82.215706 
L 589.894967 -83.426158 
L 589.863762 -84.636609 
L 589.834003 -85.847061 
L 589.810138 -87.057512 
L 589.787005 -88.267964 
L 589.753473 -89.478415 
L 589.710488 -90.688867 
L 589.68096 -91.899318 
L 589.687833 -93.10977 
L 589.724899 -94.320221 
L 589.756956 -95.530673 
L 589.747453 -96.741124 
L 589.68953 -97.951576 
L 589.612894 -99.162027 
L 589.555547 -100.372479 
L 589.532733 -101.58293 
L 589.538651 -102.793382 
L 589.568266 -104.003833 
L 589.61994 -105.214285 
L 589.677688 -106.424736 
L 589.716782 -107.635188 
L 589.734179 -108.845639 
L 589.751709 -110.05609 
L 589.785774 -111.266542 
L 589.827556 -112.476993 
L 589.855231 -113.687445 
L 589.862422 -114.897896 
L 589.867187 -116.108348 
L 589.886185 -117.318799 
L 589.910298 -118.529251 
L 589.919899 -119.739702 
L 589.916046 -120.950154 
L 589.917924 -122.160605 
L 589.932897 -123.371057 
L 589.94868 -124.581508 
L 589.954735 -125.79196 
L 589.954057 -127.002411 
L 589.953632 -128.212863 
L 589.955598 -129.423314 
L 589.958523 -130.633766 
L 589.960268 -131.844217 
L 589.9579 -133.054669 
L 589.951186 -134.26512 
L 589.947822 -135.475572 
L 589.956595 -136.686023 
L 589.975153 -137.896474 
L 589.992872 -139.106926 
L 590.003254 -140.317377 
L 590.007304 -141.527829 
L 590.008391 -142.73828 
L 590.008595 -143.948732 
L 590.008622 -145.159183 
L 590.008625 -146.369635 
L 590.008625 -147.580086 
L 590.008625 -148.790538 
L 590.008625 -150.000989 
L 590.008625 -151.211441 
L 590.008625 -152.421892 
L 590.008625 -153.632344 
L 590.008625 -154.842795 
L 590.008625 -156.053247 
L 590.008624 -157.263698 
L 590.008618 -158.47415 
L 590.008564 -159.684601 
L 590.008224 -160.895053 
L 590.006753 -162.105504 
L 590.002416 -163.315956 
L 589.994007 -164.526407 
L 589.984191 -165.736858 
L 589.979627 -166.94731 
L 590.037623 -166.94731 
L 590.037623 -166.94731 
L 590.033059 -165.736858 
L 590.023243 -164.526407 
L 590.014834 -163.315956 
L 590.010497 -162.105504 
L 590.009026 -160.895053 
L 590.008686 -159.684601 
L 590.008632 -158.47415 
L 590.008626 -157.263698 
L 590.008625 -156.053247 
L 590.008625 -154.842795 
L 590.008625 -153.632344 
L 590.008625 -152.421892 
L 590.008625 -151.211441 
L 590.008625 -150.000989 
L 590.008625 -148.790538 
L 590.008625 -147.580086 
L 590.008625 -146.369635 
L 590.008628 -145.159183 
L 590.008655 -143.948732 
L 590.008859 -142.73828 
L 590.009946 -141.527829 
L 590.013996 -140.317377 
L 590.024378 -139.106926 
L 590.042097 -137.896474 
L 590.060655 -136.686023 
L 590.069428 -135.475572 
L 590.066064 -134.26512 
L 590.05935 -133.054669 
L 590.056982 -131.844217 
L 590.058727 -130.633766 
L 590.061652 -129.423314 
L 590.063618 -128.212863 
L 590.063193 -127.002411 
L 590.062515 -125.79196 
L 590.06857 -124.581508 
L 590.084353 -123.371057 
L 590.099326 -122.160605 
L 590.101204 -120.950154 
L 590.097351 -119.739702 
L 590.106952 -118.529251 
L 590.131065 -117.318799 
L 590.150063 -116.108348 
L 590.154828 -114.897896 
L 590.162019 -113.687445 
L 590.189694 -112.476993 
L 590.231476 -111.266542 
L 590.265541 -110.05609 
L 590.283071 -108.845639 
L 590.300468 -107.635188 
L 590.339562 -106.424736 
L 590.39731 -105.214285 
L 590.448984 -104.003833 
L 590.478599 -102.793382 
L 590.484517 -101.58293 
L 590.461703 -100.372479 
L 590.404356 -99.162027 
L 590.32772 -97.951576 
L 590.269797 -96.741124 
L 590.260294 -95.530673 
L 590.292351 -94.320221 
L 590.329417 -93.10977 
L 590.33629 -91.899318 
L 590.306762 -90.688867 
L 590.263777 -89.478415 
L 590.230245 -88.267964 
L 590.207112 -87.057512 
L 590.183247 -85.847061 
L 590.153488 -84.636609 
L 590.122283 -83.426158 
L 590.097289 -82.215706 
L 590.080772 -81.005255 
L 590.067119 -79.794804 
L 590.0507 -78.584352 
L 590.033017 -77.373901 
L 590.019415 -76.163449 
L 590.012182 -74.952998 
L 590.009645 -73.742546 
L 590.009738 -72.532095 
L 590.012396 -71.321643 
L 590.018955 -70.111192 
L 590.028803 -68.90074 
L 590.036612 -67.690289 
L 590.036186 -66.479837 
L 590.027896 -65.269386 
L 590.018191 -64.058934 
L 590.011997 -62.848483 
L 590.009469 -61.638031 
L 590.008775 -60.42758 
L 590.008647 -59.217128 
L 590.008695 -58.006677 
L 590.009872 -56.796225 
L 590.024893 -55.585774 
L 590.159346 -54.375323 
L 591.000082 -53.164871 
L 594.639129 -51.95442 
L 605.363184 -50.743968 
L 626.158013 -49.533517 
L 650.433967 -48.323065 
L 661.720625 -47.112614 
z
" style="stroke: #454545; stroke-width: 1.5"/>
    </defs>
    <g clip-path="url(#p18a305a4aa)">
     <use xlink:href="#m99bbc2a1e9" x="0" y="254.99625" style="fill: #e9c767; stroke: #454545; stroke-width: 1.5"/>
    </g>
   </g>
   <g id="PolyCollection_4">
    <defs>
     <path id="mef4c09b2e9" d="M 792.405405 -47.112614 
L 746.171845 -47.112614 
L 745.784596 -49.043192 
L 745.627176 -50.973771 
L 745.639072 -52.904349 
L 745.742355 -54.834928 
L 745.84836 -56.765506 
L 745.865599 -58.696085 
L 745.708061 -60.626663 
L 745.30298 -62.557242 
L 744.597249 -64.48782 
L 743.561823 -66.418399 
L 742.193723 -68.348977 
L 740.515512 -70.279556 
L 738.572447 -72.210134 
L 736.427718 -74.140713 
L 734.156388 -76.071291 
L 731.838759 -78.00187 
L 729.553849 -79.932448 
L 727.373636 -81.863027 
L 725.358538 -83.793605 
L 723.554404 -85.724184 
L 721.991107 -87.654762 
L 720.682596 -89.585341 
L 719.628136 -91.515919 
L 718.814368 -93.446498 
L 718.217792 -95.377076 
L 717.807321 -97.307655 
L 717.546629 -99.238233 
L 717.396158 -101.168812 
L 717.314738 -103.09939 
L 717.260882 -105.029969 
L 717.193879 -106.960548 
L 717.074817 -108.891126 
L 716.867643 -110.821705 
L 716.540332 -112.752283 
L 716.066144 -114.682862 
L 715.424914 -116.61344 
L 714.604271 -118.544019 
L 713.600652 -120.474597 
L 712.420009 -122.405176 
L 711.078105 -124.335754 
L 709.60037 -126.266333 
L 708.021298 -128.196911 
L 706.383416 -130.12749 
L 704.735886 -132.058068 
L 703.132796 -133.988647 
L 701.631208 -135.919225 
L 700.289035 -137.849804 
L 699.1628 -139.780382 
L 698.305359 -141.710961 
L 697.763658 -143.641539 
L 697.576625 -145.572118 
L 697.773299 -147.502696 
L 698.371327 -149.433275 
L 699.375937 -151.363853 
L 700.779489 -153.294432 
L 702.56168 -155.22501 
L 704.690419 -157.155589 
L 707.123353 -159.086167 
L 709.809951 -161.016746 
L 712.694019 -162.947324 
L 715.716463 -164.877903 
L 718.818123 -166.808481 
L 721.942465 -168.73906 
L 725.037957 -170.669638 
L 728.059985 -172.600217 
L 730.972206 -174.530795 
L 733.747274 -176.461374 
L 736.366964 -178.391952 
L 738.821718 -180.322531 
L 741.10971 -182.25311 
L 743.235541 -184.183688 
L 745.208697 -186.114267 
L 747.041897 -188.044845 
L 748.749468 -189.975424 
L 750.345859 -191.906002 
L 751.844394 -193.836581 
L 753.256327 -195.767159 
L 754.59024 -197.697738 
L 755.851795 -199.628316 
L 757.04382 -201.558895 
L 758.166666 -203.489473 
L 759.218782 -205.420052 
L 760.197422 -207.35063 
L 761.099393 -209.281209 
L 761.921786 -211.211787 
L 762.662603 -213.142366 
L 763.321259 -215.072944 
L 763.898919 -217.003523 
L 764.398663 -218.934101 
L 764.825485 -220.86468 
L 765.186146 -222.795258 
L 765.488887 -224.725837 
L 765.743043 -226.656415 
L 765.958575 -228.586994 
L 766.145552 -230.517572 
L 766.313622 -232.448151 
L 766.471509 -234.378729 
L 766.626571 -236.309308 
L 766.784461 -238.239886 
L 771.792789 -238.239886 
L 771.792789 -238.239886 
L 771.950679 -236.309308 
L 772.105741 -234.378729 
L 772.263628 -232.448151 
L 772.431698 -230.517572 
L 772.618675 -228.586994 
L 772.834207 -226.656415 
L 773.088363 -224.725837 
L 773.391104 -222.795258 
L 773.751765 -220.86468 
L 774.178587 -218.934101 
L 774.678331 -217.003523 
L 775.255991 -215.072944 
L 775.914647 -213.142366 
L 776.655464 -211.211787 
L 777.477857 -209.281209 
L 778.379828 -207.35063 
L 779.358468 -205.420052 
L 780.410584 -203.489473 
L 781.53343 -201.558895 
L 782.725455 -199.628316 
L 783.98701 -197.697738 
L 785.320923 -195.767159 
L 786.732856 -193.836581 
L 788.231391 -191.906002 
L 789.827782 -189.975424 
L 791.535353 -188.044845 
L 793.368553 -186.114267 
L 795.341709 -184.183688 
L 797.46754 -182.25311 
L 799.755532 -180.322531 
L 802.210286 -178.391952 
L 804.829976 -176.461374 
L 807.605044 -174.530795 
L 810.517265 -172.600217 
L 813.539293 -170.669638 
L 816.634785 -168.73906 
L 819.759127 -166.808481 
L 822.860787 -164.877903 
L 825.883231 -162.947324 
L 828.767299 -161.016746 
L 831.453897 -159.086167 
L 833.886831 -157.155589 
L 836.01557 -155.22501 
L 837.797761 -153.294432 
L 839.201313 -151.363853 
L 840.205923 -149.433275 
L 840.803951 -147.502696 
L 841.000625 -145.572118 
L 840.813592 -143.641539 
L 840.271891 -141.710961 
L 839.41445 -139.780382 
L 838.288215 -137.849804 
L 836.946042 -135.919225 
L 835.444454 -133.988647 
L 833.841364 -132.058068 
L 832.193834 -130.12749 
L 830.555952 -128.196911 
L 828.97688 -126.266333 
L 827.499145 -124.335754 
L 826.157241 -122.405176 
L 824.976598 -120.474597 
L 823.972979 -118.544019 
L 823.152336 -116.61344 
L 822.511106 -114.682862 
L 822.036918 -112.752283 
L 821.709607 -110.821705 
L 821.502433 -108.891126 
L 821.383371 -106.960548 
L 821.316368 -105.029969 
L 821.262512 -103.09939 
L 821.181092 -101.168812 
L 821.030621 -99.238233 
L 820.769929 -97.307655 
L 820.359458 -95.377076 
L 819.762882 -93.446498 
L 818.949114 -91.515919 
L 817.894654 -89.585341 
L 816.586143 -87.654762 
L 815.022846 -85.724184 
L 813.218712 -83.793605 
L 811.203614 -81.863027 
L 809.023401 -79.932448 
L 806.738491 -78.00187 
L 804.420862 -76.071291 
L 802.149532 -74.140713 
L 800.004803 -72.210134 
L 798.061738 -70.279556 
L 796.383527 -68.348977 
L 795.015427 -66.418399 
L 793.980001 -64.48782 
L 793.27427 -62.557242 
L 792.869189 -60.626663 
L 792.711651 -58.696085 
L 792.72889 -56.765506 
L 792.834895 -54.834928 
L 792.938178 -52.904349 
L 792.950074 -50.973771 
L 792.792654 -49.043192 
L 792.405405 -47.112614 
z
" style="stroke: #454545; stroke-width: 1.5"/>
    </defs>
    <g clip-path="url(#p18a305a4aa)">
     <use xlink:href="#mef4c09b2e9" x="0" y="254.99625" style="fill: #1d9dca; stroke: #454545; stroke-width: 1.5"/>
    </g>
   </g>
   <g id="matplotlib.axis_3">
    <g id="xtick_3">
     <g id="line2d_14">
      <g>
       <use xlink:href="#mae5703e15d" x="590.008625" y="217.44" style="stroke: #000000; stroke-width: 0.8"/>
      </g>
     </g>
     <g id="text_12">
      <!-- 0 -->
      <g transform="translate(586.827375 232.038438)scale(0.1 -0.1)">
       <use xlink:href="#DejaVuSans-30"/>
      </g>
     </g>
    </g>
    <g id="xtick_4">
     <g id="line2d_15">
      <g>
       <use xlink:href="#mae5703e15d" x="769.288625" y="217.44" style="stroke: #000000; stroke-width: 0.8"/>
      </g>
     </g>
     <g id="text_13">
      <!-- 1 -->
      <g transform="translate(766.107375 232.038438)scale(0.1 -0.1)">
       <use xlink:href="#DejaVuSans-31"/>
      </g>
     </g>
    </g>
    <g id="text_14">
     <!-- louvain -->
     <g transform="translate(661.450188 245.716563)scale(0.1 -0.1)">
      <use xlink:href="#DejaVuSans-6c"/>
      <use xlink:href="#DejaVuSans-6f" x="27.783203"/>
      <use xlink:href="#DejaVuSans-75" x="88.964844"/>
      <use xlink:href="#DejaVuSans-76" x="152.34375"/>
      <use xlink:href="#DejaVuSans-61" x="211.523438"/>
      <use xlink:href="#DejaVuSans-69" x="272.802734"/>
      <use xlink:href="#DejaVuSans-6e" x="300.585938"/>
     </g>
    </g>
   </g>
   <g id="matplotlib.axis_4">
    <g id="ytick_8">
     <g id="line2d_16">
      <g>
       <use xlink:href="#m01cb00bb90" x="500.368625" y="199.714453" style="stroke: #000000; stroke-width: 0.8"/>
      </g>
     </g>
     <g id="text_15">
      <!-- 0 -->
      <g transform="translate(487.006125 203.513671)scale(0.1 -0.1)">
       <use xlink:href="#DejaVuSans-30"/>
      </g>
     </g>
    </g>
    <g id="ytick_9">
     <g id="line2d_17">
      <g>
       <use xlink:href="#m01cb00bb90" x="500.368625" y="173.483242" style="stroke: #000000; stroke-width: 0.8"/>
      </g>
     </g>
     <g id="text_16">
      <!-- 1 -->
      <g transform="translate(487.006125 177.282461)scale(0.1 -0.1)">
       <use xlink:href="#DejaVuSans-31"/>
      </g>
     </g>
    </g>
    <g id="ytick_10">
     <g id="line2d_18">
      <g>
       <use xlink:href="#m01cb00bb90" x="500.368625" y="147.252031" style="stroke: #000000; stroke-width: 0.8"/>
      </g>
     </g>
     <g id="text_17">
      <!-- 2 -->
      <g transform="translate(487.006125 151.05125)scale(0.1 -0.1)">
       <use xlink:href="#DejaVuSans-32"/>
      </g>
     </g>
    </g>
    <g id="ytick_11">
     <g id="line2d_19">
      <g>
       <use xlink:href="#m01cb00bb90" x="500.368625" y="121.020821" style="stroke: #000000; stroke-width: 0.8"/>
      </g>
     </g>
     <g id="text_18">
      <!-- 3 -->
      <g transform="translate(487.006125 124.820039)scale(0.1 -0.1)">
       <use xlink:href="#DejaVuSans-33"/>
      </g>
     </g>
    </g>
    <g id="ytick_12">
     <g id="line2d_20">
      <g>
       <use xlink:href="#m01cb00bb90" x="500.368625" y="94.78961" style="stroke: #000000; stroke-width: 0.8"/>
      </g>
     </g>
     <g id="text_19">
      <!-- 4 -->
      <g transform="translate(487.006125 98.588829)scale(0.1 -0.1)">
       <use xlink:href="#DejaVuSans-34"/>
      </g>
     </g>
    </g>
    <g id="ytick_13">
     <g id="line2d_21">
      <g>
       <use xlink:href="#m01cb00bb90" x="500.368625" y="68.558399" style="stroke: #000000; stroke-width: 0.8"/>
      </g>
     </g>
     <g id="text_20">
      <!-- 5 -->
      <g transform="translate(487.006125 72.357618)scale(0.1 -0.1)">
       <use xlink:href="#DejaVuSans-35"/>
      </g>
     </g>
    </g>
    <g id="ytick_14">
     <g id="line2d_22">
      <g>
       <use xlink:href="#m01cb00bb90" x="500.368625" y="42.327189" style="stroke: #000000; stroke-width: 0.8"/>
      </g>
     </g>
     <g id="text_21">
      <!-- 6 -->
      <g transform="translate(487.006125 46.126407)scale(0.1 -0.1)">
       <use xlink:href="#DejaVuSans-36"/>
      </g>
     </g>
    </g>
    <g id="ytick_15">
     <g id="line2d_23">
      <g>
       <use xlink:href="#m01cb00bb90" x="500.368625" y="16.095978" style="stroke: #000000; stroke-width: 0.8"/>
      </g>
     </g>
     <g id="text_22">
      <!-- 7 -->
      <g transform="translate(487.006125 19.895197)scale(0.1 -0.1)">
       <defs>
        <path id="DejaVuSans-37" d="M 525 4666 
L 3525 4666 
L 3525 4397 
L 1831 0 
L 1172 0 
L 2766 4134 
L 525 4134 
L 525 4666 
z
" transform="scale(0.015625)"/>
       </defs>
       <use xlink:href="#DejaVuSans-37"/>
      </g>
     </g>
    </g>
    <g id="text_23">
     <!-- SKAP1 -->
     <g transform="translate(480.926438 128.302031)rotate(-90)scale(0.1 -0.1)">
      <defs>
       <path id="DejaVuSans-53" d="M 3425 4513 
L 3425 3897 
Q 3066 4069 2747 4153 
Q 2428 4238 2131 4238 
Q 1616 4238 1336 4038 
Q 1056 3838 1056 3469 
Q 1056 3159 1242 3001 
Q 1428 2844 1947 2747 
L 2328 2669 
Q 3034 2534 3370 2195 
Q 3706 1856 3706 1288 
Q 3706 609 3251 259 
Q 2797 -91 1919 -91 
Q 1588 -91 1214 -16 
Q 841 59 441 206 
L 441 856 
Q 825 641 1194 531 
Q 1563 422 1919 422 
Q 2459 422 2753 634 
Q 3047 847 3047 1241 
Q 3047 1584 2836 1778 
Q 2625 1972 2144 2069 
L 1759 2144 
Q 1053 2284 737 2584 
Q 422 2884 422 3419 
Q 422 4038 858 4394 
Q 1294 4750 2059 4750 
Q 2388 4750 2728 4690 
Q 3069 4631 3425 4513 
z
" transform="scale(0.015625)"/>
       <path id="DejaVuSans-4b" d="M 628 4666 
L 1259 4666 
L 1259 2694 
L 3353 4666 
L 4166 4666 
L 1850 2491 
L 4331 0 
L 3500 0 
L 1259 2247 
L 1259 0 
L 628 0 
L 628 4666 
z
" transform="scale(0.015625)"/>
       <path id="DejaVuSans-41" d="M 2188 4044 
L 1331 1722 
L 3047 1722 
L 2188 4044 
z
M 1831 4666 
L 2547 4666 
L 4325 0 
L 3669 0 
L 3244 1197 
L 1141 1197 
L 716 0 
L 50 0 
L 1831 4666 
z
" transform="scale(0.015625)"/>
       <path id="DejaVuSans-50" d="M 1259 4147 
L 1259 2394 
L 2053 2394 
Q 2494 2394 2734 2622 
Q 2975 2850 2975 3272 
Q 2975 3691 2734 3919 
Q 2494 4147 2053 4147 
L 1259 4147 
z
M 628 4666 
L 2053 4666 
Q 2838 4666 3239 4311 
Q 3641 3956 3641 3272 
Q 3641 2581 3239 2228 
Q 2838 1875 2053 1875 
L 1259 1875 
L 1259 0 
L 628 0 
L 628 4666 
z
" transform="scale(0.015625)"/>
      </defs>
      <use xlink:href="#DejaVuSans-53"/>
      <use xlink:href="#DejaVuSans-4b" x="63.476562"/>
      <use xlink:href="#DejaVuSans-41" x="127.302734"/>
      <use xlink:href="#DejaVuSans-50" x="195.710938"/>
      <use xlink:href="#DejaVuSans-31" x="256.013672"/>
     </g>
    </g>
   </g>
   <g id="line2d_24">
    <path d="M 590.008625 207.883636 
L 590.008625 207.883636 
" clip-path="url(#p18a305a4aa)" style="fill: none; stroke: #454545; stroke-width: 1.5; stroke-linecap: square"/>
   </g>
   <g id="line2d_25">
    <path d="M 590.008625 207.883636 
L 590.008625 207.883636 
" clip-path="url(#p18a305a4aa)" style="fill: none; stroke: #454545; stroke-width: 4.5; stroke-linecap: square"/>
   </g>
   <g id="line2d_26">
    <path d="M 769.288625 207.883636 
L 769.288625 16.756364 
" clip-path="url(#p18a305a4aa)" style="fill: none; stroke: #454545; stroke-width: 1.5; stroke-linecap: square"/>
   </g>
   <g id="line2d_27">
    <path d="M 769.288625 162.77802 
L 769.288625 101.100892 
" clip-path="url(#p18a305a4aa)" style="fill: none; stroke: #454545; stroke-width: 4.5; stroke-linecap: square"/>
   </g>
   <g id="patch_8">
    <path d="M 500.368625 217.44 
L 500.368625 7.2 
" style="fill: none; stroke: #000000; stroke-width: 0.8; stroke-linejoin: miter; stroke-linecap: square"/>
   </g>
   <g id="patch_9">
    <path d="M 858.928625 217.44 
L 858.928625 7.2 
" style="fill: none; stroke: #000000; stroke-width: 0.8; stroke-linejoin: miter; stroke-linecap: square"/>
   </g>
   <g id="patch_10">
    <path d="M 500.368625 217.44 
L 858.928625 217.44 
" style="fill: none; stroke: #000000; stroke-width: 0.8; stroke-linejoin: miter; stroke-linecap: square"/>
   </g>
   <g id="patch_11">
    <path d="M 500.368625 7.2 
L 858.928625 7.2 
" style="fill: none; stroke: #000000; stroke-width: 0.8; stroke-linejoin: miter; stroke-linecap: square"/>
   </g>
   <g id="PathCollection_3">
    <g clip-path="url(#p18a305a4aa)">
     <use xlink:href="#me6b982f825" x="590.008625" y="207.883636" style="fill: #ffffff; stroke: #454545"/>
    </g>
   </g>
   <g id="PathCollection_4">
    <g clip-path="url(#p18a305a4aa)">
     <use xlink:href="#me6b982f825" x="769.288625" y="124.212835" style="fill: #ffffff; stroke: #454545"/>
    </g>
   </g>
  </g>
  <g id="axes_3">
   <g id="patch_12">
    <path d="M 966.496625 217.44 
L 1325.056625 217.44 
L 1325.056625 7.2 
L 966.496625 7.2 
z
" style="fill: #ffffff"/>
   </g>
   <g id="PolyCollection_5">
    <defs>
     <path id="m88b89c5424" d="M 1127.848625 -47.112614 
L 984.424625 -47.112614 
L 999.981614 -48.738547 
L 1029.172983 -50.364481 
L 1048.197695 -51.990414 
L 1054.70332 -53.616348 
L 1055.97795 -55.242282 
L 1056.125854 -56.868215 
L 1056.136177 -58.494149 
L 1056.136614 -60.120082 
L 1056.136625 -61.746016 
L 1056.136624 -63.371949 
L 1056.136607 -64.997883 
L 1056.136388 -66.623817 
L 1056.134754 -68.24975 
L 1056.127521 -69.875684 
L 1056.109386 -71.501617 
L 1056.086509 -73.127551 
L 1056.07992 -74.753484 
L 1056.097144 -76.379418 
L 1056.119424 -78.005352 
L 1056.129673 -79.631285 
L 1056.123602 -81.257219 
L 1056.099027 -82.883152 
L 1056.06531 -84.509086 
L 1056.051907 -86.135019 
L 1056.072454 -87.760953 
L 1056.099655 -89.386887 
L 1056.102522 -91.01282 
L 1056.081055 -92.638754 
L 1056.053874 -94.264687 
L 1056.026798 -95.890621 
L 1055.998004 -97.516554 
L 1055.971201 -99.142488 
L 1055.919892 -100.768422 
L 1055.815339 -102.394355 
L 1055.710563 -104.020289 
L 1055.689278 -105.646222 
L 1055.745881 -107.272156 
L 1055.801378 -108.89809 
L 1055.809368 -110.524023 
L 1055.798431 -112.149957 
L 1055.813754 -113.77589 
L 1055.852962 -115.401824 
L 1055.895315 -117.027757 
L 1055.937788 -118.653691 
L 1055.972303 -120.279625 
L 1055.991903 -121.905558 
L 1056.009021 -123.531492 
L 1056.02865 -125.157425 
L 1056.044111 -126.783359 
L 1056.058582 -128.409292 
L 1056.077111 -130.035226 
L 1056.097846 -131.66116 
L 1056.114505 -133.287093 
L 1056.117406 -134.913027 
L 1056.102405 -136.53896 
L 1056.079097 -138.164894 
L 1056.06441 -139.790827 
L 1056.065161 -141.416761 
L 1056.069481 -143.042695 
L 1056.061138 -144.668628 
L 1056.043945 -146.294562 
L 1056.03932 -147.920495 
L 1056.059472 -149.546429 
L 1056.09348 -151.172363 
L 1056.120511 -152.798296 
L 1056.132755 -154.42423 
L 1056.13604 -156.050163 
L 1056.13657 -157.676097 
L 1056.136622 -159.30203 
L 1056.136625 -160.927964 
L 1056.136625 -162.553898 
L 1056.136625 -164.179831 
L 1056.136625 -165.805765 
L 1056.136625 -167.431698 
L 1056.136625 -169.057632 
L 1056.136625 -170.683565 
L 1056.136625 -172.309499 
L 1056.136625 -173.935433 
L 1056.136625 -175.561366 
L 1056.136625 -177.1873 
L 1056.13662 -178.813233 
L 1056.136559 -180.439167 
L 1056.13603 -182.0651 
L 1056.133357 -183.691034 
L 1056.125609 -185.316968 
L 1056.113856 -186.942901 
L 1056.107769 -188.568835 
L 1056.1142 -190.194768 
L 1056.125939 -191.820702 
L 1056.133503 -193.446635 
L 1056.136066 -195.072569 
L 1056.136563 -196.698503 
L 1056.136617 -198.324436 
L 1056.136561 -199.95037 
L 1056.136048 -201.576303 
L 1056.13343 -203.202237 
L 1056.125774 -204.828171 
L 1056.114027 -206.454104 
L 1056.107767 -208.080038 
L 1056.165483 -208.080038 
L 1056.165483 -208.080038 
L 1056.159223 -206.454104 
L 1056.147476 -204.828171 
L 1056.13982 -203.202237 
L 1056.137202 -201.576303 
L 1056.136689 -199.95037 
L 1056.136633 -198.324436 
L 1056.136687 -196.698503 
L 1056.137184 -195.072569 
L 1056.139747 -193.446635 
L 1056.147311 -191.820702 
L 1056.15905 -190.194768 
L 1056.165481 -188.568835 
L 1056.159394 -186.942901 
L 1056.147641 -185.316968 
L 1056.139893 -183.691034 
L 1056.13722 -182.0651 
L 1056.136691 -180.439167 
L 1056.13663 -178.813233 
L 1056.136625 -177.1873 
L 1056.136625 -175.561366 
L 1056.136625 -173.935433 
L 1056.136625 -172.309499 
L 1056.136625 -170.683565 
L 1056.136625 -169.057632 
L 1056.136625 -167.431698 
L 1056.136625 -165.805765 
L 1056.136625 -164.179831 
L 1056.136625 -162.553898 
L 1056.136625 -160.927964 
L 1056.136628 -159.30203 
L 1056.13668 -157.676097 
L 1056.13721 -156.050163 
L 1056.140495 -154.42423 
L 1056.152739 -152.798296 
L 1056.17977 -151.172363 
L 1056.213778 -149.546429 
L 1056.23393 -147.920495 
L 1056.229305 -146.294562 
L 1056.212112 -144.668628 
L 1056.203769 -143.042695 
L 1056.208089 -141.416761 
L 1056.20884 -139.790827 
L 1056.194153 -138.164894 
L 1056.170845 -136.53896 
L 1056.155844 -134.913027 
L 1056.158745 -133.287093 
L 1056.175404 -131.66116 
L 1056.196139 -130.035226 
L 1056.214668 -128.409292 
L 1056.229139 -126.783359 
L 1056.2446 -125.157425 
L 1056.264229 -123.531492 
L 1056.281347 -121.905558 
L 1056.300947 -120.279625 
L 1056.335462 -118.653691 
L 1056.377935 -117.027757 
L 1056.420288 -115.401824 
L 1056.459496 -113.77589 
L 1056.474819 -112.149957 
L 1056.463882 -110.524023 
L 1056.471872 -108.89809 
L 1056.527369 -107.272156 
L 1056.583972 -105.646222 
L 1056.562687 -104.020289 
L 1056.457911 -102.394355 
L 1056.353358 -100.768422 
L 1056.302049 -99.142488 
L 1056.275246 -97.516554 
L 1056.246452 -95.890621 
L 1056.219376 -94.264687 
L 1056.192195 -92.638754 
L 1056.170728 -91.01282 
L 1056.173595 -89.386887 
L 1056.200796 -87.760953 
L 1056.221343 -86.135019 
L 1056.20794 -84.509086 
L 1056.174223 -82.883152 
L 1056.149648 -81.257219 
L 1056.143577 -79.631285 
L 1056.153826 -78.005352 
L 1056.176106 -76.379418 
L 1056.19333 -74.753484 
L 1056.186741 -73.127551 
L 1056.163864 -71.501617 
L 1056.145729 -69.875684 
L 1056.138496 -68.24975 
L 1056.136862 -66.623817 
L 1056.136643 -64.997883 
L 1056.136626 -63.371949 
L 1056.136625 -61.746016 
L 1056.136636 -60.120082 
L 1056.137073 -58.494149 
L 1056.147396 -56.868215 
L 1056.2953 -55.242282 
L 1057.56993 -53.616348 
L 1064.075555 -51.990414 
L 1083.100267 -50.364481 
L 1112.291636 -48.738547 
L 1127.848625 -47.112614 
z
" style="stroke: #454545; stroke-width: 1.5"/>
    </defs>
    <g clip-path="url(#p92d3a2b137)">
     <use xlink:href="#m88b89c5424" x="0" y="254.99625" style="fill: #e9c767; stroke: #454545; stroke-width: 1.5"/>
    </g>
   </g>
   <g id="PolyCollection_6">
    <defs>
     <path id="m0a8cb3faeb" d="M 1274.741471 -47.112614 
L 1196.091779 -47.112614 
L 1195.826295 -49.043192 
L 1196.01076 -50.973771 
L 1196.569849 -52.904349 
L 1197.401057 -54.834928 
L 1198.381767 -56.765506 
L 1199.378021 -58.696085 
L 1200.254189 -60.626663 
L 1200.882653 -62.557242 
L 1201.152672 -64.48782 
L 1200.977709 -66.418399 
L 1200.300692 -68.348977 
L 1199.096916 -70.279556 
L 1197.374508 -72.210134 
L 1195.172593 -74.140713 
L 1192.557489 -76.071291 
L 1189.617348 -78.00187 
L 1186.455767 -79.932448 
L 1183.184883 -81.863027 
L 1179.918467 -83.793605 
L 1176.765451 -85.724184 
L 1173.82427 -87.654762 
L 1171.178281 -89.585341 
L 1168.892436 -91.515919 
L 1167.011283 -93.446498 
L 1165.558275 -95.377076 
L 1164.5363 -97.307655 
L 1163.92928 -99.238233 
L 1163.704625 -101.168812 
L 1163.816347 -103.09939 
L 1164.208575 -105.029969 
L 1164.819269 -106.960548 
L 1165.583905 -108.891126 
L 1166.43896 -110.821705 
L 1167.325032 -112.752283 
L 1168.189484 -114.682862 
L 1168.988514 -116.61344 
L 1169.688613 -118.544019 
L 1170.267392 -120.474597 
L 1170.713799 -122.405176 
L 1171.027795 -124.335754 
L 1171.219538 -126.266333 
L 1171.308199 -128.196911 
L 1171.320494 -130.12749 
L 1171.289035 -132.058068 
L 1171.250581 -133.988647 
L 1171.244262 -135.919225 
L 1171.309816 -137.849804 
L 1171.485875 -139.780382 
L 1171.808327 -141.710961 
L 1172.308772 -143.641539 
L 1173.013105 -145.572118 
L 1173.940284 -147.502696 
L 1175.101335 -149.433275 
L 1176.498668 -151.363853 
L 1178.125789 -153.294432 
L 1179.967443 -155.22501 
L 1182.000243 -157.155589 
L 1184.193751 -159.086167 
L 1186.511977 -161.016746 
L 1188.915174 -162.947324 
L 1191.361816 -164.877903 
L 1193.810594 -166.808481 
L 1196.222287 -168.73906 
L 1198.561381 -170.669638 
L 1200.797338 -172.600217 
L 1202.905475 -174.530795 
L 1204.867451 -176.461374 
L 1206.671412 -178.391952 
L 1208.311837 -180.322531 
L 1209.789192 -182.25311 
L 1211.109427 -184.183688 
L 1212.283385 -186.114267 
L 1213.326136 -188.044845 
L 1214.256231 -189.975424 
L 1215.094872 -191.906002 
L 1215.86496 -193.836581 
L 1216.59004 -195.767159 
L 1217.293141 -197.697738 
L 1217.99557 -199.628316 
L 1218.715738 -201.558895 
L 1219.468112 -203.489473 
L 1220.262398 -205.420052 
L 1221.10305 -207.35063 
L 1221.989164 -209.281209 
L 1222.914783 -211.211787 
L 1223.869602 -213.142366 
L 1224.839988 -215.072944 
L 1225.810226 -217.003523 
L 1226.763862 -218.934101 
L 1227.685005 -220.86468 
L 1228.559484 -222.795258 
L 1229.375737 -224.725837 
L 1230.125399 -226.656415 
L 1230.803547 -228.586994 
L 1231.40863 -230.517572 
L 1231.942122 -232.448151 
L 1232.407973 -234.378729 
L 1232.811943 -236.309308 
L 1233.160899 -238.239886 
L 1237.672351 -238.239886 
L 1237.672351 -238.239886 
L 1238.021307 -236.309308 
L 1238.425277 -234.378729 
L 1238.891128 -232.448151 
L 1239.42462 -230.517572 
L 1240.029703 -228.586994 
L 1240.707851 -226.656415 
L 1241.457513 -224.725837 
L 1242.273766 -222.795258 
L 1243.148245 -220.86468 
L 1244.069388 -218.934101 
L 1245.023024 -217.003523 
L 1245.993262 -215.072944 
L 1246.963648 -213.142366 
L 1247.918467 -211.211787 
L 1248.844086 -209.281209 
L 1249.7302 -207.35063 
L 1250.570852 -205.420052 
L 1251.365138 -203.489473 
L 1252.117512 -201.558895 
L 1252.83768 -199.628316 
L 1253.540109 -197.697738 
L 1254.24321 -195.767159 
L 1254.96829 -193.836581 
L 1255.738378 -191.906002 
L 1256.577019 -189.975424 
L 1257.507114 -188.044845 
L 1258.549865 -186.114267 
L 1259.723823 -184.183688 
L 1261.044058 -182.25311 
L 1262.521413 -180.322531 
L 1264.161838 -178.391952 
L 1265.965799 -176.461374 
L 1267.927775 -174.530795 
L 1270.035912 -172.600217 
L 1272.271869 -170.669638 
L 1274.610963 -168.73906 
L 1277.022656 -166.808481 
L 1279.471434 -164.877903 
L 1281.918076 -162.947324 
L 1284.321273 -161.016746 
L 1286.639499 -159.086167 
L 1288.833007 -157.155589 
L 1290.865807 -155.22501 
L 1292.707461 -153.294432 
L 1294.334582 -151.363853 
L 1295.731915 -149.433275 
L 1296.892966 -147.502696 
L 1297.820145 -145.572118 
L 1298.524478 -143.641539 
L 1299.024923 -141.710961 
L 1299.347375 -139.780382 
L 1299.523434 -137.849804 
L 1299.588988 -135.919225 
L 1299.582669 -133.988647 
L 1299.544215 -132.058068 
L 1299.512756 -130.12749 
L 1299.525051 -128.196911 
L 1299.613712 -126.266333 
L 1299.805455 -124.335754 
L 1300.119451 -122.405176 
L 1300.565858 -120.474597 
L 1301.144637 -118.544019 
L 1301.844736 -116.61344 
L 1302.643766 -114.682862 
L 1303.508218 -112.752283 
L 1304.39429 -110.821705 
L 1305.249345 -108.891126 
L 1306.013981 -106.960548 
L 1306.624675 -105.029969 
L 1307.016903 -103.09939 
L 1307.128625 -101.168812 
L 1306.90397 -99.238233 
L 1306.29695 -97.307655 
L 1305.274975 -95.377076 
L 1303.821967 -93.446498 
L 1301.940814 -91.515919 
L 1299.654969 -89.585341 
L 1297.00898 -87.654762 
L 1294.067799 -85.724184 
L 1290.914783 -83.793605 
L 1287.648367 -81.863027 
L 1284.377483 -79.932448 
L 1281.215902 -78.00187 
L 1278.275761 -76.071291 
L 1275.660657 -74.140713 
L 1273.458742 -72.210134 
L 1271.736334 -70.279556 
L 1270.532558 -68.348977 
L 1269.855541 -66.418399 
L 1269.680578 -64.48782 
L 1269.950597 -62.557242 
L 1270.579061 -60.626663 
L 1271.455229 -58.696085 
L 1272.451483 -56.765506 
L 1273.432193 -54.834928 
L 1274.263401 -52.904349 
L 1274.82249 -50.973771 
L 1275.006955 -49.043192 
L 1274.741471 -47.112614 
z
" style="stroke: #454545; stroke-width: 1.5"/>
    </defs>
    <g clip-path="url(#p92d3a2b137)">
     <use xlink:href="#m0a8cb3faeb" x="0" y="254.99625" style="fill: #1d9dca; stroke: #454545; stroke-width: 1.5"/>
    </g>
   </g>
   <g id="matplotlib.axis_5">
    <g id="xtick_5">
     <g id="line2d_28">
      <g>
       <use xlink:href="#mae5703e15d" x="1056.136625" y="217.44" style="stroke: #000000; stroke-width: 0.8"/>
      </g>
     </g>
     <g id="text_24">
      <!-- 0 -->
      <g transform="translate(1052.955375 232.038438)scale(0.1 -0.1)">
       <use xlink:href="#DejaVuSans-30"/>
      </g>
     </g>
    </g>
    <g id="xtick_6">
     <g id="line2d_29">
      <g>
       <use xlink:href="#mae5703e15d" x="1235.416625" y="217.44" style="stroke: #000000; stroke-width: 0.8"/>
      </g>
     </g>
     <g id="text_25">
      <!-- 1 -->
      <g transform="translate(1232.235375 232.038438)scale(0.1 -0.1)">
       <use xlink:href="#DejaVuSans-31"/>
      </g>
     </g>
    </g>
    <g id="text_26">
     <!-- louvain -->
     <g transform="translate(1127.578188 245.716563)scale(0.1 -0.1)">
      <use xlink:href="#DejaVuSans-6c"/>
      <use xlink:href="#DejaVuSans-6f" x="27.783203"/>
      <use xlink:href="#DejaVuSans-75" x="88.964844"/>
      <use xlink:href="#DejaVuSans-76" x="152.34375"/>
      <use xlink:href="#DejaVuSans-61" x="211.523438"/>
      <use xlink:href="#DejaVuSans-69" x="272.802734"/>
      <use xlink:href="#DejaVuSans-6e" x="300.585938"/>
     </g>
    </g>
   </g>
   <g id="matplotlib.axis_6">
    <g id="ytick_16">
     <g id="line2d_30">
      <g>
       <use xlink:href="#m01cb00bb90" x="966.496625" y="200.386185" style="stroke: #000000; stroke-width: 0.8"/>
      </g>
     </g>
     <g id="text_27">
      <!-- 0 -->
      <g transform="translate(953.134125 204.185404)scale(0.1 -0.1)">
       <use xlink:href="#DejaVuSans-30"/>
      </g>
     </g>
    </g>
    <g id="ytick_17">
     <g id="line2d_31">
      <g>
       <use xlink:href="#m01cb00bb90" x="966.496625" y="175.062111" style="stroke: #000000; stroke-width: 0.8"/>
      </g>
     </g>
     <g id="text_28">
      <!-- 1 -->
      <g transform="translate(953.134125 178.86133)scale(0.1 -0.1)">
       <use xlink:href="#DejaVuSans-31"/>
      </g>
     </g>
    </g>
    <g id="ytick_18">
     <g id="line2d_32">
      <g>
       <use xlink:href="#m01cb00bb90" x="966.496625" y="149.738037" style="stroke: #000000; stroke-width: 0.8"/>
      </g>
     </g>
     <g id="text_29">
      <!-- 2 -->
      <g transform="translate(953.134125 153.537256)scale(0.1 -0.1)">
       <use xlink:href="#DejaVuSans-32"/>
      </g>
     </g>
    </g>
    <g id="ytick_19">
     <g id="line2d_33">
      <g>
       <use xlink:href="#m01cb00bb90" x="966.496625" y="124.413963" style="stroke: #000000; stroke-width: 0.8"/>
      </g>
     </g>
     <g id="text_30">
      <!-- 3 -->
      <g transform="translate(953.134125 128.213182)scale(0.1 -0.1)">
       <use xlink:href="#DejaVuSans-33"/>
      </g>
     </g>
    </g>
    <g id="ytick_20">
     <g id="line2d_34">
      <g>
       <use xlink:href="#m01cb00bb90" x="966.496625" y="99.089889" style="stroke: #000000; stroke-width: 0.8"/>
      </g>
     </g>
     <g id="text_31">
      <!-- 4 -->
      <g transform="translate(953.134125 102.889108)scale(0.1 -0.1)">
       <use xlink:href="#DejaVuSans-34"/>
      </g>
     </g>
    </g>
    <g id="ytick_21">
     <g id="line2d_35">
      <g>
       <use xlink:href="#m01cb00bb90" x="966.496625" y="73.765815" style="stroke: #000000; stroke-width: 0.8"/>
      </g>
     </g>
     <g id="text_32">
      <!-- 5 -->
      <g transform="translate(953.134125 77.565034)scale(0.1 -0.1)">
       <use xlink:href="#DejaVuSans-35"/>
      </g>
     </g>
    </g>
    <g id="ytick_22">
     <g id="line2d_36">
      <g>
       <use xlink:href="#m01cb00bb90" x="966.496625" y="48.441741" style="stroke: #000000; stroke-width: 0.8"/>
      </g>
     </g>
     <g id="text_33">
      <!-- 6 -->
      <g transform="translate(953.134125 52.24096)scale(0.1 -0.1)">
       <use xlink:href="#DejaVuSans-36"/>
      </g>
     </g>
    </g>
    <g id="ytick_23">
     <g id="line2d_37">
      <g>
       <use xlink:href="#m01cb00bb90" x="966.496625" y="23.117667" style="stroke: #000000; stroke-width: 0.8"/>
      </g>
     </g>
     <g id="text_34">
      <!-- 7 -->
      <g transform="translate(953.134125 26.916886)scale(0.1 -0.1)">
       <use xlink:href="#DejaVuSans-37"/>
      </g>
     </g>
    </g>
    <g id="text_35">
     <!-- CD247 -->
     <g transform="translate(947.054438 129.205156)rotate(-90)scale(0.1 -0.1)">
      <defs>
       <path id="DejaVuSans-44" d="M 1259 4147 
L 1259 519 
L 2022 519 
Q 2988 519 3436 956 
Q 3884 1394 3884 2338 
Q 3884 3275 3436 3711 
Q 2988 4147 2022 4147 
L 1259 4147 
z
M 628 4666 
L 1925 4666 
Q 3281 4666 3915 4102 
Q 4550 3538 4550 2338 
Q 4550 1131 3912 565 
Q 3275 0 1925 0 
L 628 0 
L 628 4666 
z
" transform="scale(0.015625)"/>
      </defs>
      <use xlink:href="#DejaVuSans-43"/>
      <use xlink:href="#DejaVuSans-44" x="69.824219"/>
      <use xlink:href="#DejaVuSans-32" x="146.826172"/>
      <use xlink:href="#DejaVuSans-34" x="210.449219"/>
      <use xlink:href="#DejaVuSans-37" x="274.072266"/>
     </g>
    </g>
   </g>
   <g id="line2d_38">
    <path d="M 1056.136625 207.883636 
L 1056.136625 207.883636 
" clip-path="url(#p92d3a2b137)" style="fill: none; stroke: #454545; stroke-width: 1.5; stroke-linecap: square"/>
   </g>
   <g id="line2d_39">
    <path d="M 1056.136625 207.883636 
L 1056.136625 207.883636 
" clip-path="url(#p92d3a2b137)" style="fill: none; stroke: #454545; stroke-width: 4.5; stroke-linecap: square"/>
   </g>
   <g id="line2d_40">
    <path d="M 1235.416625 207.883636 
L 1235.416625 38.490343 
" clip-path="url(#p92d3a2b137)" style="fill: none; stroke: #454545; stroke-width: 1.5; stroke-linecap: square"/>
   </g>
   <g id="line2d_41">
    <path d="M 1235.416625 166.660797 
L 1235.416625 106.738428 
" clip-path="url(#p92d3a2b137)" style="fill: none; stroke: #454545; stroke-width: 4.5; stroke-linecap: square"/>
   </g>
   <g id="patch_13">
    <path d="M 966.496625 217.44 
L 966.496625 7.2 
" style="fill: none; stroke: #000000; stroke-width: 0.8; stroke-linejoin: miter; stroke-linecap: square"/>
   </g>
   <g id="patch_14">
    <path d="M 1325.056625 217.44 
L 1325.056625 7.2 
" style="fill: none; stroke: #000000; stroke-width: 0.8; stroke-linejoin: miter; stroke-linecap: square"/>
   </g>
   <g id="patch_15">
    <path d="M 966.496625 217.44 
L 1325.056625 217.44 
" style="fill: none; stroke: #000000; stroke-width: 0.8; stroke-linejoin: miter; stroke-linecap: square"/>
   </g>
   <g id="patch_16">
    <path d="M 966.496625 7.2 
L 1325.056625 7.2 
" style="fill: none; stroke: #000000; stroke-width: 0.8; stroke-linejoin: miter; stroke-linecap: square"/>
   </g>
   <g id="PathCollection_5">
    <g clip-path="url(#p92d3a2b137)">
     <use xlink:href="#me6b982f825" x="1056.136625" y="207.883636" style="fill: #ffffff; stroke: #454545"/>
    </g>
   </g>
   <g id="PathCollection_6">
    <g clip-path="url(#p92d3a2b137)">
     <use xlink:href="#me6b982f825" x="1235.416625" y="141.21935" style="fill: #ffffff; stroke: #454545"/>
    </g>
   </g>
  </g>
  <g id="axes_4">
   <g id="patch_17">
    <path d="M 1432.624625 217.44 
L 1791.184625 217.44 
L 1791.184625 7.2 
L 1432.624625 7.2 
z
" style="fill: #ffffff"/>
   </g>
   <g id="PolyCollection_7">
    <defs>
     <path id="m61d10696be" d="M 1593.976625 -47.112614 
L 1450.552625 -47.112614 
L 1454.073237 -48.803431 
L 1463.631544 -50.494248 
L 1476.678525 -52.185064 
L 1490.216485 -53.875881 
L 1501.890888 -55.566698 
L 1510.550628 -57.257515 
L 1516.169307 -58.948332 
L 1519.385966 -60.639149 
L 1521.015194 -62.329966 
L 1521.739216 -64.020783 
L 1522.008375 -65.7116 
L 1522.071204 -67.402417 
L 1522.046116 -69.093234 
L 1521.983687 -70.784051 
L 1521.904825 -72.474868 
L 1521.818621 -74.165685 
L 1521.728086 -75.856502 
L 1521.6306 -77.547319 
L 1521.517574 -79.238136 
L 1521.375723 -80.928953 
L 1521.190484 -82.619769 
L 1520.95055 -84.310586 
L 1520.651945 -86.001403 
L 1520.300326 -87.69222 
L 1519.911057 -89.383037 
L 1519.507189 -91.073854 
L 1519.115808 -92.764671 
L 1518.763613 -94.455488 
L 1518.472974 -96.146305 
L 1518.259755 -97.837122 
L 1518.133366 -99.527939 
L 1518.098154 -101.218756 
L 1518.154589 -102.909573 
L 1518.299201 -104.60039 
L 1518.52343 -106.291207 
L 1518.812477 -107.982024 
L 1519.145245 -109.672841 
L 1519.495897 -111.363658 
L 1519.836911 -113.054475 
L 1520.14308 -114.745291 
L 1520.395641 -116.436108 
L 1520.58559 -118.126925 
L 1520.71517 -119.817742 
L 1520.79674 -121.508559 
L 1520.848823 -123.199376 
L 1520.890175 -124.890193 
L 1520.933801 -126.58101 
L 1520.983412 -128.271827 
L 1521.034118 -129.962644 
L 1521.07715 -131.653461 
L 1521.106212 -133.344278 
L 1521.12194 -135.035095 
L 1521.131952 -136.725912 
L 1521.146579 -138.416729 
L 1521.172979 -140.107546 
L 1521.211213 -141.798363 
L 1521.254514 -143.48918 
L 1521.293371 -145.179996 
L 1521.32094 -146.870813 
L 1521.336878 -148.56163 
L 1521.347861 -150.252447 
L 1521.36483 -151.943264 
L 1521.398446 -153.634081 
L 1521.454827 -155.324898 
L 1521.533325 -157.015715 
L 1521.627086 -158.706532 
L 1521.725896 -160.397349 
L 1521.819815 -162.088166 
L 1521.901934 -163.778983 
L 1521.96926 -165.4698 
L 1522.021849 -167.160617 
L 1522.06113 -168.851434 
L 1522.0885 -170.542251 
L 1522.104802 -172.233068 
L 1522.110657 -173.923885 
L 1522.107197 -175.614702 
L 1522.096694 -177.305518 
L 1522.082735 -178.996335 
L 1522.069826 -180.687152 
L 1522.06247 -182.377969 
L 1522.063975 -184.068786 
L 1522.075425 -185.759603 
L 1522.095343 -187.45042 
L 1522.120319 -189.141237 
L 1522.146351 -190.832054 
L 1522.170206 -192.522871 
L 1522.190079 -194.213688 
L 1522.205366 -195.904505 
L 1522.215922 -197.595322 
L 1522.221489 -199.286139 
L 1522.221706 -200.976956 
L 1522.216627 -202.667773 
L 1522.207296 -204.35859 
L 1522.195912 -206.049407 
L 1522.185412 -207.740223 
L 1522.178634 -209.43104 
L 1522.17748 -211.121857 
L 1522.182426 -212.812674 
L 1522.192535 -214.503491 
L 1522.336715 -214.503491 
L 1522.336715 -214.503491 
L 1522.346824 -212.812674 
L 1522.35177 -211.121857 
L 1522.350616 -209.43104 
L 1522.343838 -207.740223 
L 1522.333338 -206.049407 
L 1522.321954 -204.35859 
L 1522.312623 -202.667773 
L 1522.307544 -200.976956 
L 1522.307761 -199.286139 
L 1522.313328 -197.595322 
L 1522.323884 -195.904505 
L 1522.339171 -194.213688 
L 1522.359044 -192.522871 
L 1522.382899 -190.832054 
L 1522.408931 -189.141237 
L 1522.433907 -187.45042 
L 1522.453825 -185.759603 
L 1522.465275 -184.068786 
L 1522.46678 -182.377969 
L 1522.459424 -180.687152 
L 1522.446515 -178.996335 
L 1522.432556 -177.305518 
L 1522.422053 -175.614702 
L 1522.418593 -173.923885 
L 1522.424448 -172.233068 
L 1522.44075 -170.542251 
L 1522.46812 -168.851434 
L 1522.507401 -167.160617 
L 1522.55999 -165.4698 
L 1522.627316 -163.778983 
L 1522.709435 -162.088166 
L 1522.803354 -160.397349 
L 1522.902164 -158.706532 
L 1522.995925 -157.015715 
L 1523.074423 -155.324898 
L 1523.130804 -153.634081 
L 1523.16442 -151.943264 
L 1523.181389 -150.252447 
L 1523.192372 -148.56163 
L 1523.20831 -146.870813 
L 1523.235879 -145.179996 
L 1523.274736 -143.48918 
L 1523.318037 -141.798363 
L 1523.356271 -140.107546 
L 1523.382671 -138.416729 
L 1523.397298 -136.725912 
L 1523.40731 -135.035095 
L 1523.423038 -133.344278 
L 1523.4521 -131.653461 
L 1523.495132 -129.962644 
L 1523.545838 -128.271827 
L 1523.595449 -126.58101 
L 1523.639075 -124.890193 
L 1523.680427 -123.199376 
L 1523.73251 -121.508559 
L 1523.81408 -119.817742 
L 1523.94366 -118.126925 
L 1524.133609 -116.436108 
L 1524.38617 -114.745291 
L 1524.692339 -113.054475 
L 1525.033353 -111.363658 
L 1525.384005 -109.672841 
L 1525.716773 -107.982024 
L 1526.00582 -106.291207 
L 1526.230049 -104.60039 
L 1526.374661 -102.909573 
L 1526.431096 -101.218756 
L 1526.395884 -99.527939 
L 1526.269495 -97.837122 
L 1526.056276 -96.146305 
L 1525.765637 -94.455488 
L 1525.413442 -92.764671 
L 1525.022061 -91.073854 
L 1524.618193 -89.383037 
L 1524.228924 -87.69222 
L 1523.877305 -86.001403 
L 1523.5787 -84.310586 
L 1523.338766 -82.619769 
L 1523.153527 -80.928953 
L 1523.011676 -79.238136 
L 1522.89865 -77.547319 
L 1522.801164 -75.856502 
L 1522.710629 -74.165685 
L 1522.624425 -72.474868 
L 1522.545563 -70.784051 
L 1522.483134 -69.093234 
L 1522.458046 -67.402417 
L 1522.520875 -65.7116 
L 1522.790034 -64.020783 
L 1523.514056 -62.329966 
L 1525.143284 -60.639149 
L 1528.359943 -58.948332 
L 1533.978622 -57.257515 
L 1542.638362 -55.566698 
L 1554.312765 -53.875881 
L 1567.850725 -52.185064 
L 1580.897706 -50.494248 
L 1590.456013 -48.803431 
L 1593.976625 -47.112614 
z
" style="stroke: #454545; stroke-width: 1.5"/>
    </defs>
    <g clip-path="url(#p5554c894bd)">
     <use xlink:href="#m61d10696be" x="0" y="254.99625" style="fill: #e9c767; stroke: #454545; stroke-width: 1.5"/>
    </g>
   </g>
   <g id="PolyCollection_8">
    <defs>
     <path id="m3157c14807" d="M 1722.947471 -47.112614 
L 1680.141779 -47.112614 
L 1680.082569 -49.043192 
L 1680.353583 -50.973771 
L 1680.897772 -52.904349 
L 1681.635182 -54.834928 
L 1682.469372 -56.765506 
L 1683.295221 -58.696085 
L 1684.007224 -60.626663 
L 1684.507349 -62.557242 
L 1684.711694 -64.48782 
L 1684.555402 -66.418399 
L 1683.99558 -68.348977 
L 1683.012217 -70.279556 
L 1681.607346 -72.210134 
L 1679.802799 -74.140713 
L 1677.637006 -76.071291 
L 1675.161262 -78.00187 
L 1672.435842 -79.932448 
L 1669.526238 -81.863027 
L 1666.499734 -83.793605 
L 1663.422406 -85.724184 
L 1660.356599 -87.654762 
L 1657.358873 -89.585341 
L 1654.478385 -91.515919 
L 1651.75568 -93.446498 
L 1649.221858 -95.377076 
L 1646.898117 -97.307655 
L 1644.795687 -99.238233 
L 1642.916179 -101.168812 
L 1641.252391 -103.09939 
L 1639.789571 -105.029969 
L 1638.507121 -106.960548 
L 1637.38066 -108.891126 
L 1636.384313 -110.821705 
L 1635.493019 -112.752283 
L 1634.684649 -114.682862 
L 1633.941682 -116.61344 
L 1633.252271 -118.544019 
L 1632.610595 -120.474597 
L 1632.016477 -122.405176 
L 1631.474424 -124.335754 
L 1630.992283 -126.266333 
L 1630.579813 -128.196911 
L 1630.247454 -130.12749 
L 1630.005523 -132.058068 
L 1629.863966 -133.988647 
L 1629.832625 -135.919225 
L 1629.921869 -137.849804 
L 1630.143321 -139.780382 
L 1630.510353 -141.710961 
L 1631.038077 -143.641539 
L 1631.742636 -145.572118 
L 1632.639785 -147.502696 
L 1633.742897 -149.433275 
L 1635.060705 -151.363853 
L 1636.595165 -153.294432 
L 1638.339871 -155.22501 
L 1640.27936 -157.155589 
L 1642.389505 -159.086167 
L 1644.639027 -161.016746 
L 1646.991943 -162.947324 
L 1649.410614 -164.877903 
L 1651.858978 -166.808481 
L 1654.30549 -168.73906 
L 1656.725391 -170.669638 
L 1659.102021 -172.600217 
L 1661.427048 -174.530795 
L 1663.699663 -176.461374 
L 1665.92491 -178.391952 
L 1668.11144 -180.322531 
L 1670.269019 -182.25311 
L 1672.406119 -184.183688 
L 1674.527876 -186.114267 
L 1676.63463 -188.044845 
L 1678.72116 -189.975424 
L 1680.776656 -191.906002 
L 1682.785359 -193.836581 
L 1684.727772 -195.767159 
L 1686.582254 -197.697738 
L 1688.326836 -199.628316 
L 1689.941042 -201.558895 
L 1691.40756 -203.489473 
L 1692.713596 -205.420052 
L 1693.85182 -207.35063 
L 1694.820848 -209.281209 
L 1695.625243 -211.211787 
L 1696.275082 -213.142366 
L 1696.785166 -215.072944 
L 1697.17396 -217.003523 
L 1697.462364 -218.934101 
L 1697.672438 -220.86468 
L 1697.826151 -222.795258 
L 1697.944247 -224.725837 
L 1698.045276 -226.656415 
L 1698.144852 -228.586994 
L 1698.255143 -230.517572 
L 1698.384625 -232.448151 
L 1698.538085 -234.378729 
L 1698.716868 -236.309308 
L 1698.919313 -238.239886 
L 1704.169937 -238.239886 
L 1704.169937 -238.239886 
L 1704.372382 -236.309308 
L 1704.551165 -234.378729 
L 1704.704625 -232.448151 
L 1704.834107 -230.517572 
L 1704.944398 -228.586994 
L 1705.043974 -226.656415 
L 1705.145003 -224.725837 
L 1705.263099 -222.795258 
L 1705.416812 -220.86468 
L 1705.626886 -218.934101 
L 1705.91529 -217.003523 
L 1706.304084 -215.072944 
L 1706.814168 -213.142366 
L 1707.464007 -211.211787 
L 1708.268402 -209.281209 
L 1709.23743 -207.35063 
L 1710.375654 -205.420052 
L 1711.68169 -203.489473 
L 1713.148208 -201.558895 
L 1714.762414 -199.628316 
L 1716.506996 -197.697738 
L 1718.361478 -195.767159 
L 1720.303891 -193.836581 
L 1722.312594 -191.906002 
L 1724.36809 -189.975424 
L 1726.45462 -188.044845 
L 1728.561374 -186.114267 
L 1730.683131 -184.183688 
L 1732.820231 -182.25311 
L 1734.97781 -180.322531 
L 1737.16434 -178.391952 
L 1739.389587 -176.461374 
L 1741.662202 -174.530795 
L 1743.987229 -172.600217 
L 1746.363859 -170.669638 
L 1748.78376 -168.73906 
L 1751.230272 -166.808481 
L 1753.678636 -164.877903 
L 1756.097307 -162.947324 
L 1758.450223 -161.016746 
L 1760.699745 -159.086167 
L 1762.80989 -157.155589 
L 1764.749379 -155.22501 
L 1766.494085 -153.294432 
L 1768.028545 -151.363853 
L 1769.346353 -149.433275 
L 1770.449465 -147.502696 
L 1771.346614 -145.572118 
L 1772.051173 -143.641539 
L 1772.578897 -141.710961 
L 1772.945929 -139.780382 
L 1773.167381 -137.849804 
L 1773.256625 -135.919225 
L 1773.225284 -133.988647 
L 1773.083727 -132.058068 
L 1772.841796 -130.12749 
L 1772.509437 -128.196911 
L 1772.096967 -126.266333 
L 1771.614826 -124.335754 
L 1771.072773 -122.405176 
L 1770.478655 -120.474597 
L 1769.836979 -118.544019 
L 1769.147568 -116.61344 
L 1768.404601 -114.682862 
L 1767.596231 -112.752283 
L 1766.704937 -110.821705 
L 1765.70859 -108.891126 
L 1764.582129 -106.960548 
L 1763.299679 -105.029969 
L 1761.836859 -103.09939 
L 1760.173071 -101.168812 
L 1758.293563 -99.238233 
L 1756.191133 -97.307655 
L 1753.867392 -95.377076 
L 1751.33357 -93.446498 
L 1748.610865 -91.515919 
L 1745.730377 -89.585341 
L 1742.732651 -87.654762 
L 1739.666844 -85.724184 
L 1736.589516 -83.793605 
L 1733.563012 -81.863027 
L 1730.653408 -79.932448 
L 1727.927988 -78.00187 
L 1725.452244 -76.071291 
L 1723.286451 -74.140713 
L 1721.481904 -72.210134 
L 1720.077033 -70.279556 
L 1719.09367 -68.348977 
L 1718.533848 -66.418399 
L 1718.377556 -64.48782 
L 1718.581901 -62.557242 
L 1719.082026 -60.626663 
L 1719.794029 -58.696085 
L 1720.619878 -56.765506 
L 1721.454068 -54.834928 
L 1722.191478 -52.904349 
L 1722.735667 -50.973771 
L 1723.006681 -49.043192 
L 1722.947471 -47.112614 
z
" style="stroke: #454545; stroke-width: 1.5"/>
    </defs>
    <g clip-path="url(#p5554c894bd)">
     <use xlink:href="#m3157c14807" x="0" y="254.99625" style="fill: #1d9dca; stroke: #454545; stroke-width: 1.5"/>
    </g>
   </g>
   <g id="matplotlib.axis_7">
    <g id="xtick_7">
     <g id="line2d_42">
      <g>
       <use xlink:href="#mae5703e15d" x="1522.264625" y="217.44" style="stroke: #000000; stroke-width: 0.8"/>
      </g>
     </g>
     <g id="text_36">
      <!-- 0 -->
      <g transform="translate(1519.083375 232.038438)scale(0.1 -0.1)">
       <use xlink:href="#DejaVuSans-30"/>
      </g>
     </g>
    </g>
    <g id="xtick_8">
     <g id="line2d_43">
      <g>
       <use xlink:href="#mae5703e15d" x="1701.544625" y="217.44" style="stroke: #000000; stroke-width: 0.8"/>
      </g>
     </g>
     <g id="text_37">
      <!-- 1 -->
      <g transform="translate(1698.363375 232.038438)scale(0.1 -0.1)">
       <use xlink:href="#DejaVuSans-31"/>
      </g>
     </g>
    </g>
    <g id="text_38">
     <!-- louvain -->
     <g transform="translate(1593.706187 245.716563)scale(0.1 -0.1)">
      <use xlink:href="#DejaVuSans-6c"/>
      <use xlink:href="#DejaVuSans-6f" x="27.783203"/>
      <use xlink:href="#DejaVuSans-75" x="88.964844"/>
      <use xlink:href="#DejaVuSans-76" x="152.34375"/>
      <use xlink:href="#DejaVuSans-61" x="211.523438"/>
      <use xlink:href="#DejaVuSans-69" x="272.802734"/>
      <use xlink:href="#DejaVuSans-6e" x="300.585938"/>
     </g>
    </g>
   </g>
   <g id="matplotlib.axis_8">
    <g id="ytick_24">
     <g id="line2d_44">
      <g>
       <use xlink:href="#m01cb00bb90" x="1432.624625" y="192.0105" style="stroke: #000000; stroke-width: 0.8"/>
      </g>
     </g>
     <g id="text_39">
      <!-- 0 -->
      <g transform="translate(1419.262125 195.809719)scale(0.1 -0.1)">
       <use xlink:href="#DejaVuSans-30"/>
      </g>
     </g>
    </g>
    <g id="ytick_25">
     <g id="line2d_45">
      <g>
       <use xlink:href="#m01cb00bb90" x="1432.624625" y="158.647568" style="stroke: #000000; stroke-width: 0.8"/>
      </g>
     </g>
     <g id="text_40">
      <!-- 1 -->
      <g transform="translate(1419.262125 162.446787)scale(0.1 -0.1)">
       <use xlink:href="#DejaVuSans-31"/>
      </g>
     </g>
    </g>
    <g id="ytick_26">
     <g id="line2d_46">
      <g>
       <use xlink:href="#m01cb00bb90" x="1432.624625" y="125.284637" style="stroke: #000000; stroke-width: 0.8"/>
      </g>
     </g>
     <g id="text_41">
      <!-- 2 -->
      <g transform="translate(1419.262125 129.083855)scale(0.1 -0.1)">
       <use xlink:href="#DejaVuSans-32"/>
      </g>
     </g>
    </g>
    <g id="ytick_27">
     <g id="line2d_47">
      <g>
       <use xlink:href="#m01cb00bb90" x="1432.624625" y="91.921705" style="stroke: #000000; stroke-width: 0.8"/>
      </g>
     </g>
     <g id="text_42">
      <!-- 3 -->
      <g transform="translate(1419.262125 95.720924)scale(0.1 -0.1)">
       <use xlink:href="#DejaVuSans-33"/>
      </g>
     </g>
    </g>
    <g id="ytick_28">
     <g id="line2d_48">
      <g>
       <use xlink:href="#m01cb00bb90" x="1432.624625" y="58.558773" style="stroke: #000000; stroke-width: 0.8"/>
      </g>
     </g>
     <g id="text_43">
      <!-- 4 -->
      <g transform="translate(1419.262125 62.357992)scale(0.1 -0.1)">
       <use xlink:href="#DejaVuSans-34"/>
      </g>
     </g>
    </g>
    <g id="ytick_29">
     <g id="line2d_49">
      <g>
       <use xlink:href="#m01cb00bb90" x="1432.624625" y="25.195842" style="stroke: #000000; stroke-width: 0.8"/>
      </g>
     </g>
     <g id="text_44">
      <!-- 5 -->
      <g transform="translate(1419.262125 28.995061)scale(0.1 -0.1)">
       <use xlink:href="#DejaVuSans-35"/>
      </g>
     </g>
    </g>
    <g id="text_45">
     <!-- PRKCH -->
     <g transform="translate(1413.182437 129.064531)rotate(-90)scale(0.1 -0.1)">
      <defs>
       <path id="DejaVuSans-52" d="M 2841 2188 
Q 3044 2119 3236 1894 
Q 3428 1669 3622 1275 
L 4263 0 
L 3584 0 
L 2988 1197 
Q 2756 1666 2539 1819 
Q 2322 1972 1947 1972 
L 1259 1972 
L 1259 0 
L 628 0 
L 628 4666 
L 2053 4666 
Q 2853 4666 3247 4331 
Q 3641 3997 3641 3322 
Q 3641 2881 3436 2590 
Q 3231 2300 2841 2188 
z
M 1259 4147 
L 1259 2491 
L 2053 2491 
Q 2509 2491 2742 2702 
Q 2975 2913 2975 3322 
Q 2975 3731 2742 3939 
Q 2509 4147 2053 4147 
L 1259 4147 
z
" transform="scale(0.015625)"/>
       <path id="DejaVuSans-48" d="M 628 4666 
L 1259 4666 
L 1259 2753 
L 3553 2753 
L 3553 4666 
L 4184 4666 
L 4184 0 
L 3553 0 
L 3553 2222 
L 1259 2222 
L 1259 0 
L 628 0 
L 628 4666 
z
" transform="scale(0.015625)"/>
      </defs>
      <use xlink:href="#DejaVuSans-50"/>
      <use xlink:href="#DejaVuSans-52" x="60.302734"/>
      <use xlink:href="#DejaVuSans-4b" x="129.785156"/>
      <use xlink:href="#DejaVuSans-43" x="189.861328"/>
      <use xlink:href="#DejaVuSans-48" x="259.685547"/>
     </g>
    </g>
   </g>
   <g id="line2d_50">
    <path d="M 1522.264625 207.883636 
L 1522.264625 207.883636 
" clip-path="url(#p5554c894bd)" style="fill: none; stroke: #454545; stroke-width: 1.5; stroke-linecap: square"/>
   </g>
   <g id="line2d_51">
    <path d="M 1522.264625 207.883636 
L 1522.264625 207.883636 
" clip-path="url(#p5554c894bd)" style="fill: none; stroke: #454545; stroke-width: 4.5; stroke-linecap: square"/>
   </g>
   <g id="line2d_52">
    <path d="M 1701.544625 207.883636 
L 1701.544625 26.231115 
" clip-path="url(#p5554c894bd)" style="fill: none; stroke: #454545; stroke-width: 1.5; stroke-linecap: square"/>
   </g>
   <g id="line2d_53">
    <path d="M 1701.544625 152.967187 
L 1701.544625 101.437426 
" clip-path="url(#p5554c894bd)" style="fill: none; stroke: #454545; stroke-width: 4.5; stroke-linecap: square"/>
   </g>
   <g id="patch_18">
    <path d="M 1432.624625 217.44 
L 1432.624625 7.2 
" style="fill: none; stroke: #000000; stroke-width: 0.8; stroke-linejoin: miter; stroke-linecap: square"/>
   </g>
   <g id="patch_19">
    <path d="M 1791.184625 217.44 
L 1791.184625 7.2 
" style="fill: none; stroke: #000000; stroke-width: 0.8; stroke-linejoin: miter; stroke-linecap: square"/>
   </g>
   <g id="patch_20">
    <path d="M 1432.624625 217.44 
L 1791.184625 217.44 
" style="fill: none; stroke: #000000; stroke-width: 0.8; stroke-linejoin: miter; stroke-linecap: square"/>
   </g>
   <g id="patch_21">
    <path d="M 1432.624625 7.2 
L 1791.184625 7.2 
" style="fill: none; stroke: #000000; stroke-width: 0.8; stroke-linejoin: miter; stroke-linecap: square"/>
   </g>
   <g id="PathCollection_7">
    <g clip-path="url(#p5554c894bd)">
     <use xlink:href="#me6b982f825" x="1522.264625" y="207.883636" style="fill: #ffffff; stroke: #454545"/>
    </g>
   </g>
   <g id="PathCollection_8">
    <g clip-path="url(#p5554c894bd)">
     <use xlink:href="#me6b982f825" x="1701.544625" y="125.200344" style="fill: #ffffff; stroke: #454545"/>
    </g>
   </g>
  </g>
  <g id="axes_5">
   <g id="patch_22">
    <path d="M 1898.752625 217.44 
L 2257.312625 217.44 
L 2257.312625 7.2 
L 1898.752625 7.2 
z
" style="fill: #ffffff"/>
   </g>
   <g id="PolyCollection_9">
    <defs>
     <path id="m4cbd03865a" d="M 2060.104625 -47.112614 
L 1916.680625 -47.112614 
L 1918.32975 -48.951624 
L 1923.058296 -50.790635 
L 1930.236371 -52.629646 
L 1938.967293 -54.468657 
L 1948.267467 -56.307668 
L 1957.240458 -58.146679 
L 1965.202905 -59.985689 
L 1971.740617 -61.8247 
L 1976.696879 -63.663711 
L 1980.113055 -65.502722 
L 1982.148998 -67.341733 
L 1983.008068 -69.180744 
L 1982.882532 -71.019754 
L 1981.924761 -72.858765 
L 1980.241482 -74.697776 
L 1977.903956 -76.536787 
L 1974.966047 -78.375798 
L 1971.483417 -80.214808 
L 1967.529315 -82.053819 
L 1963.204542 -83.89283 
L 1958.640833 -85.731841 
L 1953.997878 -87.570852 
L 1949.454725 -89.409863 
L 1945.196587 -91.248873 
L 1941.398436 -93.087884 
L 1938.207304 -94.926895 
L 1935.725904 -96.765906 
L 1934.000594 -98.604917 
L 1933.016525 -100.443928 
L 1932.701674 -102.282938 
L 1932.939564 -104.121949 
L 1933.58828 -105.96096 
L 1934.501749 -107.799971 
L 1935.548739 -109.638982 
L 1936.625886 -111.477993 
L 1937.663004 -113.317003 
L 1938.621146 -115.156014 
L 1939.485677 -116.995025 
L 1940.257423 -118.834036 
L 1940.944694 -120.673047 
L 1941.558003 -122.512057 
L 1942.108068 -124.351068 
L 1942.6066 -126.190079 
L 1943.068785 -128.02909 
L 1943.516018 -129.868101 
L 1943.977562 -131.707112 
L 1944.490031 -133.546122 
L 1945.094205 -135.385133 
L 1945.829452 -137.224144 
L 1946.726942 -139.063155 
L 1947.803508 -140.902166 
L 1949.058131 -142.741177 
L 1950.472417 -144.580187 
L 1952.01519 -146.419198 
L 1953.64994 -148.258209 
L 1955.342821 -150.09722 
L 1957.068721 -151.936231 
L 1958.813589 -153.775242 
L 1960.572611 -155.614252 
L 1962.345213 -157.453263 
L 1964.128978 -159.292274 
L 1965.914733 -161.131285 
L 1967.684565 -162.970296 
L 1969.413344 -164.809306 
L 1971.073145 -166.648317 
L 1972.638966 -168.487328 
L 1974.093847 -170.326339 
L 1975.431808 -172.16535 
L 1976.657833 -174.004361 
L 1977.785133 -175.843371 
L 1978.830717 -177.682382 
L 1979.810722 -179.521393 
L 1980.736806 -181.360404 
L 1981.614419 -183.199415 
L 1982.443046 -185.038426 
L 1983.217929 -186.877436 
L 1983.932434 -188.716447 
L 1984.580254 -190.555458 
L 1985.156916 -192.394469 
L 1985.660435 -194.23348 
L 1986.091326 -196.07249 
L 1986.452284 -197.911501 
L 1986.747876 -199.750512 
L 1986.984355 -201.589523 
L 1987.169565 -203.428534 
L 1987.312751 -205.267545 
L 1987.424079 -207.106555 
L 1987.513818 -208.945566 
L 1987.591273 -210.784577 
L 1987.663741 -212.623588 
L 1987.735785 -214.462599 
L 1987.809067 -216.30161 
L 1987.882782 -218.14062 
L 1987.954574 -219.979631 
L 1988.021631 -221.818642 
L 1988.081652 -223.657653 
L 1988.133433 -225.496664 
L 1988.176999 -227.335675 
L 1988.213332 -229.174685 
L 1988.571918 -229.174685 
L 1988.571918 -229.174685 
L 1988.608251 -227.335675 
L 1988.651817 -225.496664 
L 1988.703598 -223.657653 
L 1988.763619 -221.818642 
L 1988.830676 -219.979631 
L 1988.902468 -218.14062 
L 1988.976183 -216.30161 
L 1989.049465 -214.462599 
L 1989.121509 -212.623588 
L 1989.193977 -210.784577 
L 1989.271432 -208.945566 
L 1989.361171 -207.106555 
L 1989.472499 -205.267545 
L 1989.615685 -203.428534 
L 1989.800895 -201.589523 
L 1990.037374 -199.750512 
L 1990.332966 -197.911501 
L 1990.693924 -196.07249 
L 1991.124815 -194.23348 
L 1991.628334 -192.394469 
L 1992.204996 -190.555458 
L 1992.852816 -188.716447 
L 1993.567321 -186.877436 
L 1994.342204 -185.038426 
L 1995.170831 -183.199415 
L 1996.048444 -181.360404 
L 1996.974528 -179.521393 
L 1997.954533 -177.682382 
L 1999.000117 -175.843371 
L 2000.127417 -174.004361 
L 2001.353442 -172.16535 
L 2002.691403 -170.326339 
L 2004.146284 -168.487328 
L 2005.712105 -166.648317 
L 2007.371906 -164.809306 
L 2009.100685 -162.970296 
L 2010.870517 -161.131285 
L 2012.656272 -159.292274 
L 2014.440037 -157.453263 
L 2016.212639 -155.614252 
L 2017.971661 -153.775242 
L 2019.716529 -151.936231 
L 2021.442429 -150.09722 
L 2023.13531 -148.258209 
L 2024.77006 -146.419198 
L 2026.312833 -144.580187 
L 2027.727119 -142.741177 
L 2028.981742 -140.902166 
L 2030.058308 -139.063155 
L 2030.955798 -137.224144 
L 2031.691045 -135.385133 
L 2032.295219 -133.546122 
L 2032.807688 -131.707112 
L 2033.269232 -129.868101 
L 2033.716465 -128.02909 
L 2034.17865 -126.190079 
L 2034.677182 -124.351068 
L 2035.227247 -122.512057 
L 2035.840556 -120.673047 
L 2036.527827 -118.834036 
L 2037.299573 -116.995025 
L 2038.164104 -115.156014 
L 2039.122246 -113.317003 
L 2040.159364 -111.477993 
L 2041.236511 -109.638982 
L 2042.283501 -107.799971 
L 2043.19697 -105.96096 
L 2043.845686 -104.121949 
L 2044.083576 -102.282938 
L 2043.768725 -100.443928 
L 2042.784656 -98.604917 
L 2041.059346 -96.765906 
L 2038.577946 -94.926895 
L 2035.386814 -93.087884 
L 2031.588663 -91.248873 
L 2027.330525 -89.409863 
L 2022.787372 -87.570852 
L 2018.144417 -85.731841 
L 2013.580708 -83.89283 
L 2009.255935 -82.053819 
L 2005.301833 -80.214808 
L 2001.819203 -78.375798 
L 1998.881294 -76.536787 
L 1996.543768 -74.697776 
L 1994.860489 -72.858765 
L 1993.902718 -71.019754 
L 1993.777182 -69.180744 
L 1994.636252 -67.341733 
L 1996.672195 -65.502722 
L 2000.088371 -63.663711 
L 2005.044633 -61.8247 
L 2011.582345 -59.985689 
L 2019.544792 -58.146679 
L 2028.517783 -56.307668 
L 2037.817957 -54.468657 
L 2046.548879 -52.629646 
L 2053.726954 -50.790635 
L 2058.4555 -48.951624 
L 2060.104625 -47.112614 
z
" style="stroke: #454545; stroke-width: 1.5"/>
    </defs>
    <g clip-path="url(#paf1142247f)">
     <use xlink:href="#m4cbd03865a" x="0" y="254.99625" style="fill: #e9c767; stroke: #454545; stroke-width: 1.5"/>
    </g>
   </g>
   <g id="PolyCollection_10">
    <defs>
     <path id="mb25890c771" d="M 2172.629416 -47.112614 
L 2162.715834 -47.112614 
L 2162.719763 -49.043192 
L 2162.823948 -50.973771 
L 2163.012267 -52.904349 
L 2163.261966 -54.834928 
L 2163.546391 -56.765506 
L 2163.838084 -58.696085 
L 2164.111805 -60.626663 
L 2164.347027 -62.557242 
L 2164.529596 -64.48782 
L 2164.652424 -66.418399 
L 2164.715201 -68.348977 
L 2164.723294 -70.279556 
L 2164.686063 -72.210134 
L 2164.614888 -74.140713 
L 2164.521175 -76.071291 
L 2164.414585 -78.00187 
L 2164.301668 -79.932448 
L 2164.185028 -81.863027 
L 2164.063057 -83.793605 
L 2163.930239 -85.724184 
L 2163.77795 -87.654762 
L 2163.595602 -89.585341 
L 2163.371982 -91.515919 
L 2163.096552 -93.446498 
L 2162.760534 -95.377076 
L 2162.357587 -97.307655 
L 2161.883999 -99.238233 
L 2161.338357 -101.168812 
L 2160.720792 -103.09939 
L 2160.031951 -105.029969 
L 2159.271908 -106.960548 
L 2158.439237 -108.891126 
L 2157.530445 -110.821705 
L 2156.539873 -112.752283 
L 2155.460123 -114.682862 
L 2154.282934 -116.61344 
L 2153.000374 -118.544019 
L 2151.606152 -120.474597 
L 2150.096815 -122.405176 
L 2148.472639 -124.335754 
L 2146.738042 -126.266333 
L 2144.901454 -128.196911 
L 2142.97466 -130.12749 
L 2140.97173 -132.058068 
L 2138.907729 -133.988647 
L 2136.797446 -135.919225 
L 2134.654382 -137.849804 
L 2132.49017 -139.780382 
L 2130.314533 -141.710961 
L 2128.135765 -143.641539 
L 2125.961572 -145.572118 
L 2123.80007 -147.502696 
L 2121.660622 -149.433275 
L 2119.554279 -151.363853 
L 2117.493605 -153.294432 
L 2115.491868 -155.22501 
L 2113.561703 -157.155589 
L 2111.71353 -159.086167 
L 2109.954132 -161.016746 
L 2108.285787 -162.947324 
L 2106.706315 -164.877903 
L 2105.210186 -166.808481 
L 2103.790652 -168.73906 
L 2102.442583 -170.669638 
L 2101.165553 -172.600217 
L 2099.966596 -174.530795 
L 2098.862119 -176.461374 
L 2097.878588 -178.391952 
L 2097.051817 -180.322531 
L 2096.424932 -182.25311 
L 2096.045275 -184.183688 
L 2095.960625 -186.114267 
L 2096.215195 -188.044845 
L 2096.845786 -189.975424 
L 2097.878463 -191.906002 
L 2099.325992 -193.836581 
L 2101.186222 -195.767159 
L 2103.441524 -197.697738 
L 2106.059338 -199.628316 
L 2108.993799 -201.558895 
L 2112.188332 -203.489473 
L 2115.579012 -205.420052 
L 2119.09837 -207.35063 
L 2122.679284 -209.281209 
L 2126.258545 -211.211787 
L 2129.779774 -213.142366 
L 2133.195436 -215.072944 
L 2136.467873 -217.003523 
L 2139.569401 -218.934101 
L 2142.481664 -220.86468 
L 2145.194479 -222.795258 
L 2147.704443 -224.725837 
L 2150.013478 -226.656415 
L 2152.127487 -228.586994 
L 2154.05514 -230.517572 
L 2155.806828 -232.448151 
L 2157.393757 -234.378729 
L 2158.827171 -236.309308 
L 2160.117749 -238.239886 
L 2175.227501 -238.239886 
L 2175.227501 -238.239886 
L 2176.518079 -236.309308 
L 2177.951493 -234.378729 
L 2179.538422 -232.448151 
L 2181.29011 -230.517572 
L 2183.217763 -228.586994 
L 2185.331772 -226.656415 
L 2187.640807 -224.725837 
L 2190.150771 -222.795258 
L 2192.863586 -220.86468 
L 2195.775849 -218.934101 
L 2198.877377 -217.003523 
L 2202.149814 -215.072944 
L 2205.565476 -213.142366 
L 2209.086705 -211.211787 
L 2212.665966 -209.281209 
L 2216.24688 -207.35063 
L 2219.766238 -205.420052 
L 2223.156918 -203.489473 
L 2226.351451 -201.558895 
L 2229.285912 -199.628316 
L 2231.903726 -197.697738 
L 2234.159028 -195.767159 
L 2236.019258 -193.836581 
L 2237.466787 -191.906002 
L 2238.499464 -189.975424 
L 2239.130055 -188.044845 
L 2239.384625 -186.114267 
L 2239.299975 -184.183688 
L 2238.920318 -182.25311 
L 2238.293433 -180.322531 
L 2237.466662 -178.391952 
L 2236.483131 -176.461374 
L 2235.378654 -174.530795 
L 2234.179697 -172.600217 
L 2232.902667 -170.669638 
L 2231.554598 -168.73906 
L 2230.135064 -166.808481 
L 2228.638935 -164.877903 
L 2227.059463 -162.947324 
L 2225.391118 -161.016746 
L 2223.63172 -159.086167 
L 2221.783547 -157.155589 
L 2219.853382 -155.22501 
L 2217.851645 -153.294432 
L 2215.790971 -151.363853 
L 2213.684628 -149.433275 
L 2211.54518 -147.502696 
L 2209.383678 -145.572118 
L 2207.209485 -143.641539 
L 2205.030717 -141.710961 
L 2202.85508 -139.780382 
L 2200.690868 -137.849804 
L 2198.547804 -135.919225 
L 2196.437521 -133.988647 
L 2194.37352 -132.058068 
L 2192.37059 -130.12749 
L 2190.443796 -128.196911 
L 2188.607208 -126.266333 
L 2186.872611 -124.335754 
L 2185.248435 -122.405176 
L 2183.739098 -120.474597 
L 2182.344876 -118.544019 
L 2181.062316 -116.61344 
L 2179.885127 -114.682862 
L 2178.805377 -112.752283 
L 2177.814805 -110.821705 
L 2176.906013 -108.891126 
L 2176.073342 -106.960548 
L 2175.313299 -105.029969 
L 2174.624458 -103.09939 
L 2174.006893 -101.168812 
L 2173.461251 -99.238233 
L 2172.987663 -97.307655 
L 2172.584716 -95.377076 
L 2172.248698 -93.446498 
L 2171.973268 -91.515919 
L 2171.749648 -89.585341 
L 2171.5673 -87.654762 
L 2171.415011 -85.724184 
L 2171.282193 -83.793605 
L 2171.160222 -81.863027 
L 2171.043582 -79.932448 
L 2170.930665 -78.00187 
L 2170.824075 -76.071291 
L 2170.730362 -74.140713 
L 2170.659187 -72.210134 
L 2170.621956 -70.279556 
L 2170.630049 -68.348977 
L 2170.692826 -66.418399 
L 2170.815654 -64.48782 
L 2170.998223 -62.557242 
L 2171.233445 -60.626663 
L 2171.507166 -58.696085 
L 2171.798859 -56.765506 
L 2172.083284 -54.834928 
L 2172.332983 -52.904349 
L 2172.521302 -50.973771 
L 2172.625487 -49.043192 
L 2172.629416 -47.112614 
z
" style="stroke: #454545; stroke-width: 1.5"/>
    </defs>
    <g clip-path="url(#paf1142247f)">
     <use xlink:href="#mb25890c771" x="0" y="254.99625" style="fill: #1d9dca; stroke: #454545; stroke-width: 1.5"/>
    </g>
   </g>
   <g id="matplotlib.axis_9">
    <g id="xtick_9">
     <g id="line2d_54">
      <g>
       <use xlink:href="#mae5703e15d" x="1988.392625" y="217.44" style="stroke: #000000; stroke-width: 0.8"/>
      </g>
     </g>
     <g id="text_46">
      <!-- 0 -->
      <g transform="translate(1985.211375 232.038438)scale(0.1 -0.1)">
       <use xlink:href="#DejaVuSans-30"/>
      </g>
     </g>
    </g>
    <g id="xtick_10">
     <g id="line2d_55">
      <g>
       <use xlink:href="#mae5703e15d" x="2167.672625" y="217.44" style="stroke: #000000; stroke-width: 0.8"/>
      </g>
     </g>
     <g id="text_47">
      <!-- 1 -->
      <g transform="translate(2164.491375 232.038438)scale(0.1 -0.1)">
       <use xlink:href="#DejaVuSans-31"/>
      </g>
     </g>
    </g>
    <g id="text_48">
     <!-- louvain -->
     <g transform="translate(2059.834187 245.716563)scale(0.1 -0.1)">
      <use xlink:href="#DejaVuSans-6c"/>
      <use xlink:href="#DejaVuSans-6f" x="27.783203"/>
      <use xlink:href="#DejaVuSans-75" x="88.964844"/>
      <use xlink:href="#DejaVuSans-76" x="152.34375"/>
      <use xlink:href="#DejaVuSans-61" x="211.523438"/>
      <use xlink:href="#DejaVuSans-69" x="272.802734"/>
      <use xlink:href="#DejaVuSans-6e" x="300.585938"/>
     </g>
    </g>
   </g>
   <g id="matplotlib.axis_10">
    <g id="ytick_30">
     <g id="line2d_56">
      <g>
       <use xlink:href="#m01cb00bb90" x="1898.752625" y="192.10537" style="stroke: #000000; stroke-width: 0.8"/>
      </g>
     </g>
     <g id="text_49">
      <!-- 1 -->
      <g transform="translate(1877.010437 195.904589)scale(0.1 -0.1)">
       <defs>
        <path id="DejaVuSans-2212" d="M 678 2272 
L 4684 2272 
L 4684 1741 
L 678 1741 
L 678 2272 
z
" transform="scale(0.015625)"/>
       </defs>
       <use xlink:href="#DejaVuSans-2212"/>
       <use xlink:href="#DejaVuSans-31" x="83.789062"/>
      </g>
     </g>
    </g>
    <g id="ytick_31">
     <g id="line2d_57">
      <g>
       <use xlink:href="#m01cb00bb90" x="1898.752625" y="147.26971" style="stroke: #000000; stroke-width: 0.8"/>
      </g>
     </g>
     <g id="text_50">
      <!-- 0 -->
      <g transform="translate(1885.390125 151.068929)scale(0.1 -0.1)">
       <use xlink:href="#DejaVuSans-30"/>
      </g>
     </g>
    </g>
    <g id="ytick_32">
     <g id="line2d_58">
      <g>
       <use xlink:href="#m01cb00bb90" x="1898.752625" y="102.43405" style="stroke: #000000; stroke-width: 0.8"/>
      </g>
     </g>
     <g id="text_51">
      <!-- 1 -->
      <g transform="translate(1885.390125 106.233269)scale(0.1 -0.1)">
       <use xlink:href="#DejaVuSans-31"/>
      </g>
     </g>
    </g>
    <g id="ytick_33">
     <g id="line2d_59">
      <g>
       <use xlink:href="#m01cb00bb90" x="1898.752625" y="57.59839" style="stroke: #000000; stroke-width: 0.8"/>
      </g>
     </g>
     <g id="text_52">
      <!-- 2 -->
      <g transform="translate(1885.390125 61.397609)scale(0.1 -0.1)">
       <use xlink:href="#DejaVuSans-32"/>
      </g>
     </g>
    </g>
    <g id="ytick_34">
     <g id="line2d_60">
      <g>
       <use xlink:href="#m01cb00bb90" x="1898.752625" y="12.76273" style="stroke: #000000; stroke-width: 0.8"/>
      </g>
     </g>
     <g id="text_53">
      <!-- 3 -->
      <g transform="translate(1885.390125 16.561949)scale(0.1 -0.1)">
       <use xlink:href="#DejaVuSans-33"/>
      </g>
     </g>
    </g>
    <g id="text_54">
     <!-- RPL3 -->
     <g transform="translate(1870.93075 124.77625)rotate(-90)scale(0.1 -0.1)">
      <use xlink:href="#DejaVuSans-52"/>
      <use xlink:href="#DejaVuSans-50" x="69.482422"/>
      <use xlink:href="#DejaVuSans-4c" x="129.785156"/>
      <use xlink:href="#DejaVuSans-33" x="185.498047"/>
     </g>
    </g>
   </g>
   <g id="line2d_61">
    <path d="M 1988.392625 207.883636 
L 1988.392625 25.821565 
" clip-path="url(#paf1142247f)" style="fill: none; stroke: #454545; stroke-width: 1.5; stroke-linecap: square"/>
   </g>
   <g id="line2d_62">
    <path d="M 1988.392625 207.883636 
L 1988.392625 121.917228 
" clip-path="url(#paf1142247f)" style="fill: none; stroke: #454545; stroke-width: 4.5; stroke-linecap: square"/>
   </g>
   <g id="line2d_63">
    <path d="M 2167.672625 153.23684 
L 2167.672625 16.756364 
" clip-path="url(#paf1142247f)" style="fill: none; stroke: #454545; stroke-width: 1.5; stroke-linecap: square"/>
   </g>
   <g id="line2d_64">
    <path d="M 2167.672625 101.127579 
L 2167.672625 59.589557 
" clip-path="url(#paf1142247f)" style="fill: none; stroke: #454545; stroke-width: 4.5; stroke-linecap: square"/>
   </g>
   <g id="patch_23">
    <path d="M 1898.752625 217.44 
L 1898.752625 7.2 
" style="fill: none; stroke: #000000; stroke-width: 0.8; stroke-linejoin: miter; stroke-linecap: square"/>
   </g>
   <g id="patch_24">
    <path d="M 2257.312625 217.44 
L 2257.312625 7.2 
" style="fill: none; stroke: #000000; stroke-width: 0.8; stroke-linejoin: miter; stroke-linecap: square"/>
   </g>
   <g id="patch_25">
    <path d="M 1898.752625 217.44 
L 2257.312625 217.44 
" style="fill: none; stroke: #000000; stroke-width: 0.8; stroke-linejoin: miter; stroke-linecap: square"/>
   </g>
   <g id="patch_26">
    <path d="M 1898.752625 7.2 
L 2257.312625 7.2 
" style="fill: none; stroke: #000000; stroke-width: 0.8; stroke-linejoin: miter; stroke-linecap: square"/>
   </g>
   <g id="PathCollection_9">
    <g clip-path="url(#paf1142247f)">
     <use xlink:href="#me6b982f825" x="1988.392625" y="150.296906" style="fill: #ffffff; stroke: #454545"/>
    </g>
   </g>
   <g id="PathCollection_10">
    <g clip-path="url(#paf1142247f)">
     <use xlink:href="#me6b982f825" x="2167.672625" y="77.745967" style="fill: #ffffff; stroke: #454545"/>
    </g>
   </g>
  </g>
 </g>
 <defs>
  <clipPath id="p43d4110b0a">
   <rect x="34.240625" y="7.2" width="358.56" height="210.24"/>
  </clipPath>
  <clipPath id="p18a305a4aa">
   <rect x="500.368625" y="7.2" width="358.56" height="210.24"/>
  </clipPath>
  <clipPath id="p92d3a2b137">
   <rect x="966.496625" y="7.2" width="358.56" height="210.24"/>
  </clipPath>
  <clipPath id="p5554c894bd">
   <rect x="1432.624625" y="7.2" width="358.56" height="210.24"/>
  </clipPath>
  <clipPath id="paf1142247f">
   <rect x="1898.752625" y="7.2" width="358.56" height="210.24"/>
  </clipPath>
 </defs>
</svg>
